<svg width="1440" height="79" viewBox="0 0 1440 79" fill="none" xmlns="http://www.w3.org/2000/svg">
<g clip-path="url(#clip0_4212_15800)">
<path fill-rule="evenodd" clip-rule="evenodd" d="M1134.5 0.0967343C1134.5 0.0967343 1166.81 28.8454 1185.39 28.4684C1196.36 28.2457 1196.17 17.2667 1196.17 17.2667C1196.17 17.2667 1219.78 53.8149 1257.62 51.5333C1280.82 50.1346 1282.91 32.323 1282.91 32.323C1282.91 32.323 1291.36 50.4988 1308.34 50.889C1319.05 51.1356 1322.86 43.3258 1322.86 43.3258C1322.86 43.3258 1344.75 81.349 1384.62 78.8852C1421.84 76.5859 1417.59 46.6983 1417.59 46.6983C1417.59 46.6983 1431.2 55.5683 1442.31 54.85C1454.59 54.0556 1450.99 42.2575 1451.27 42.3745C1455.86 44.2855 1469.81 49.4624 1474.18 50.7859C1497.3 57.7987 1517.49 45.2227 1514.47 25.3057C1512.29 10.8801 1502.16 0.0967343 1502.16 0.0967343H1134.5Z" fill="#1FCAA8"/>
<path fill-rule="evenodd" clip-rule="evenodd" d="M602.773 0.0967343C602.773 0.0967343 570.458 28.8454 551.884 28.4684C540.909 28.2457 541.106 17.2667 541.106 17.2667C541.106 17.2667 517.493 53.8149 479.649 51.5333C456.453 50.1346 454.358 32.323 454.358 32.323C454.358 32.323 445.91 50.4988 428.936 50.889C418.221 51.1356 414.412 43.3258 414.412 43.3258C414.412 43.3258 392.527 81.349 352.65 78.8852C315.432 76.5859 319.688 46.6983 319.688 46.6983C319.688 46.6983 306.076 55.5683 294.965 54.85C282.679 54.0556 286.286 42.2575 286.007 42.3745C281.415 44.2855 267.459 49.4624 263.097 50.7859C239.971 57.7987 219.785 45.2227 222.799 25.3057C224.982 10.8801 235.115 0.0967343 235.115 0.0967343H602.773Z" fill="#1FCAA8"/>
<path fill-rule="evenodd" clip-rule="evenodd" d="M520.5 0.0967343C520.5 0.0967343 552.815 28.8454 571.389 28.4684C582.364 28.2457 582.167 17.2667 582.167 17.2667C582.167 17.2667 605.78 53.8149 643.624 51.5333C666.82 50.1346 668.915 32.323 668.915 32.323C668.915 32.323 677.363 50.4988 694.337 50.889C705.052 51.1356 708.861 43.3258 708.861 43.3258C708.861 43.3258 730.746 81.349 770.622 78.8852C807.841 76.5859 803.585 46.6983 803.585 46.6983C803.585 46.6983 817.197 55.5683 828.308 54.85C840.594 54.0556 836.987 42.2575 837.266 42.3745C841.858 44.2855 855.814 49.4624 860.176 50.7859C883.302 57.7987 903.488 45.2227 900.474 25.3057C898.291 10.8801 888.158 0.0967343 888.158 0.0967343H520.5Z" fill="#1FCAA8"/>
<path fill-rule="evenodd" clip-rule="evenodd" d="M1198.77 0.0967343C1198.77 0.0967343 1166.46 28.8454 1147.88 28.4684C1136.91 28.2457 1137.11 17.2667 1137.11 17.2667C1137.11 17.2667 1113.49 53.8149 1075.65 51.5333C1052.45 50.1346 1050.36 32.323 1050.36 32.323C1050.36 32.323 1041.91 50.4988 1024.94 50.889C1014.22 51.1356 1010.41 43.3258 1010.41 43.3258C1010.41 43.3258 988.527 81.349 948.65 78.8852C911.432 76.5859 915.688 46.6983 915.688 46.6983C915.688 46.6983 902.076 55.5683 890.965 54.85C878.679 54.0556 882.286 42.2575 882.007 42.3745C877.415 44.2855 863.459 49.4624 859.097 50.7859C835.971 57.7987 815.785 45.2227 818.799 25.3057C820.982 10.8801 831.115 0.0967343 831.115 0.0967343H1198.77Z" fill="#1FCAA8"/>
<path fill-rule="evenodd" clip-rule="evenodd" d="M-75.5 0.0967343C-75.5 0.0967343 -43.1852 28.8454 -24.611 28.4684C-13.6356 28.2457 -13.8333 17.2667 -13.8333 17.2667C-13.8333 17.2667 9.77992 53.8149 47.6242 51.5333C70.82 50.1346 72.9147 32.323 72.9147 32.323C72.9147 32.323 81.3632 50.4988 98.3371 50.889C109.052 51.1356 112.861 43.3258 112.861 43.3258C112.861 43.3258 134.746 81.349 174.622 78.8852C211.841 76.5859 207.585 46.6983 207.585 46.6983C207.585 46.6983 221.197 55.5683 232.308 54.85C244.594 54.0556 240.987 42.2575 241.266 42.3745C245.858 44.2855 259.814 49.4624 264.176 50.7859C287.302 57.7987 307.488 45.2227 304.474 25.3057C302.291 10.8801 292.158 0.0967343 292.158 0.0967343H-75.5Z" fill="#1FCAA8"/>
</g>
<defs>
<clipPath id="clip0_4212_15800">
<rect width="1440" height="79" fill="white" transform="matrix(1 0 0 -1 0 79)"/>
</clipPath>
</defs>
</svg>
