<svg width="183" height="221" viewBox="0 0 183 221" fill="none" xmlns="http://www.w3.org/2000/svg">
<path d="M71.4667 148.024C61.8973 143.294 54.9217 137.119 50.4793 128.39C45.3211 118.252 44.7581 107.753 48.7301 97.1061C53.3146 84.8179 62.1272 76.425 73.7783 70.9121C86.6729 64.8109 100.081 63.9281 113.707 68.0026C124.302 71.1711 133.052 77.1721 138.998 86.6337C147.005 99.3743 147.438 112.678 140.578 125.98C133.798 139.127 122.554 146.885 108.545 150.791C97.7085 153.813 86.8801 153.434 76.1924 149.898C74.2837 149.266 72.4469 148.417 71.4667 148.024Z" fill="#FFE9A1"/>
<path d="M130.716 0.730921C131.664 1.16146 132.131 1.98645 131.878 3.27894C131.538 5.00685 131.105 6.71499 130.579 8.3958C127.598 17.9486 124.594 27.4944 121.567 37.033C120.027 41.8934 118.435 46.7375 116.862 51.5872C116.707 52.0644 116.642 52.6676 116.313 52.9667C115.903 53.3379 115.234 53.6725 114.73 53.6084C114.335 53.5579 113.914 52.9239 113.705 52.4591C113.542 52.0985 113.625 51.587 113.705 51.1628C115.602 41.1939 116.411 31.0936 117.416 21.0144C117.952 15.6319 118.713 10.2718 119.376 4.90215C119.407 4.6529 119.476 4.40853 119.525 4.16172C120.164 0.949847 121.522 -0.163592 124.754 0.0190269C126.447 0.114874 128.132 0.355907 129.819 0.543396C130.121 0.590485 130.421 0.6531 130.716 0.730921Z" fill="#FFE9A1"/>
<path d="M45.2023 28.5682C45.6392 28.0872 46.2843 27.2181 47.0858 26.5319C48.2809 25.5122 49.535 24.5637 50.8416 23.6913C52.7262 22.4289 54.0288 22.7952 55.1569 24.7996C55.5426 25.4479 55.8917 26.1174 56.2024 26.8049C60.4349 36.8181 65.0661 46.6811 67.7711 57.2745C67.8694 57.5727 67.9492 57.8767 68.0099 58.1847C68.1044 58.9347 67.8915 59.5854 67.1592 59.9033C66.4527 60.2101 65.7735 60.0742 65.3118 59.4265C64.3644 58.0977 63.3856 56.7835 62.5433 55.3885C60.8145 52.5251 58.6605 50.0012 56.5829 47.3965C52.7868 42.6369 49.1933 37.7142 45.5761 32.8145C44.4297 31.2616 44.3757 30.1947 45.2023 28.5682Z" fill="#FFE9A1"/>
<path d="M178.563 36.1278C180.25 37.3991 181.646 39.0162 182.657 40.8707C183.087 41.6687 182.781 42.4747 182.091 43.075C180.858 44.1479 179.666 45.2764 178.368 46.2639C168.404 53.8393 158.427 61.3972 148.437 68.9376C147.589 69.5888 146.707 70.1957 145.796 70.7558C144.797 71.3598 143.91 71.2543 143.407 70.5869C142.91 69.9288 143.07 69.0947 143.903 68.2544C153.906 58.1626 163.914 48.0751 173.926 37.9918C174.505 37.4149 175.125 36.8811 175.782 36.3949C176.599 35.7849 177.518 35.7169 178.563 36.1278Z" fill="#FFE9A1"/>
<path d="M5.55587 85.1089C6.50482 85.439 7.45536 85.7639 8.40232 86.0997C14.1498 88.1382 19.8971 90.1777 25.6441 92.2182C28.423 93.2028 31.2079 94.1715 33.9846 95.1627C34.3952 95.3094 34.9059 95.4431 35.1396 95.7555C35.486 96.2183 35.8416 96.8582 35.7862 97.3795C35.742 97.7961 35.1516 98.2787 34.692 98.4927C34.2059 98.7192 33.5884 98.7176 33.0274 98.7216C22.6855 98.7929 12.4303 97.9923 2.33406 95.6231C0.824188 95.269 0.217229 94.6886 0.0629437 93.248C-0.231902 90.4979 0.568302 87.8838 1.23414 85.2743C1.49313 84.2589 2.30153 83.9317 3.32729 84.1836C4.10381 84.3742 4.84974 84.689 5.60921 84.9484C5.5915 85.002 5.5738 85.0554 5.55587 85.1089Z" fill="#FFE9A1"/>
<path d="M82.1863 198.706C85.4079 192.577 88.6296 186.447 91.8514 180.317C91.9685 180.094 92.0796 179.868 92.2056 179.65C92.5949 178.976 93.1842 178.617 93.9397 178.849C94.8211 179.12 95.0433 179.859 94.823 180.669C94.3451 182.428 93.8454 184.183 93.2758 185.914C90.8564 193.265 88.4874 200.635 85.9354 207.94C84.7341 211.379 83.1678 214.692 81.7535 218.056C81.0226 219.795 79.7671 220.729 77.8072 220.687C76.742 220.664 75.6741 220.846 74.606 220.865C72.906 220.896 72.0701 219.79 72.5412 218.151C72.6977 217.672 72.8948 217.208 73.1305 216.762C76.0718 210.706 79.0163 204.651 81.9639 198.598L82.1863 198.706Z" fill="#FFE9A1"/>
<path d="M3.01673 159.673C3.64361 159.235 4.20384 158.729 4.85551 158.411C6.43953 157.639 8.0767 156.976 9.67356 156.229C15.8879 153.321 22.0898 150.387 28.3073 147.486C29.9615 146.714 31.6289 145.955 33.3418 145.332C34.1011 145.081 34.9097 145.017 35.699 145.145C37.2018 145.373 37.6286 146.617 36.5616 147.729C35.5851 148.71 34.5332 149.612 33.4157 150.428C31.912 151.569 30.378 152.677 28.7967 153.706C22.3101 157.928 15.8104 162.13 9.29748 166.312C6.41521 168.168 5.01 167.928 3.96365 164.343C3.69958 163.439 3.28855 162.573 3.07229 161.66C2.93394 161.076 3.02868 160.437 3.01673 159.673Z" fill="#FFE9A1"/>
<path d="M141.636 179.949C141.175 179.109 140.591 178.41 140.387 177.614C139.384 173.713 138.483 169.786 137.545 165.868C137.194 164.402 136.888 162.923 136.471 161.476C136.216 160.592 136.195 159.88 137.073 159.354C138.11 158.733 138.88 158.74 139.626 159.567C140.606 160.632 141.529 161.748 142.394 162.908C145.25 166.817 148.079 170.744 150.882 174.691C151.912 176.134 151.74 176.743 150.011 177.493C148.169 178.292 146.303 179.051 144.401 179.689C143.607 179.955 142.693 179.863 141.636 179.949Z" fill="#FFE9A1"/>
<path d="M177.046 114.846C176.731 115.075 176.286 115.564 175.736 115.758C175.016 115.977 174.27 116.096 173.518 116.111C167.371 116.468 161.221 116.797 155.074 117.149C153.502 117.239 153.107 117.024 152.877 115.81C152.621 114.459 152.932 113.859 154.34 113.41C158.235 112.166 162.151 110.99 166.049 109.757C169.107 108.791 172.145 107.764 175.203 106.804C175.723 106.618 176.284 106.575 176.826 106.679C177.144 106.763 177.558 107.323 177.552 107.661C177.508 109.853 177.362 112.042 177.243 114.231C177.195 114.441 177.129 114.647 177.046 114.846Z" fill="#FFE9A1"/>
</svg>
