<svg width="106" height="111" viewBox="0 0 106 111" fill="none" xmlns="http://www.w3.org/2000/svg">
<path d="M45.2276 21.1315C47.8844 20.3983 50.5236 21.8495 51.1809 24.5087C51.6191 26.1773 51.4951 27.9439 50.828 29.535C50.1298 31.1861 49.2939 32.7754 48.3292 34.2863C44.5943 40.1603 40.3967 45.7269 35.7762 50.9332C34.6972 52.1349 33.6949 53.4058 32.665 54.6512C31.6366 55.8946 30.3824 56.6444 28.7094 56.5864C28.3079 56.603 27.9098 56.6671 27.5234 56.7774C26.9304 56.9158 26.3128 56.91 25.7224 56.7605C25.132 56.6109 24.5862 56.322 24.1305 55.9179C23.6749 55.5138 23.3229 55.0063 23.1039 54.438C22.8849 53.8697 22.8054 53.2572 22.872 52.6518C22.9478 52.0284 23.1314 51.4229 23.4146 50.8623C27.0497 43.434 31.5023 36.4345 36.6897 29.9938C38.6591 27.5521 40.8041 25.2482 42.9345 22.9419C43.5871 22.2352 44.4571 21.7293 45.2276 21.1315Z" fill="#FFDE73"/>
<path d="M66.1868 58.3137C62.8998 60.2644 59.5659 62.1008 55.9631 63.4279C54.141 64.0613 52.2339 64.4171 50.3059 64.4834C49.6519 64.5162 49.0001 64.3836 48.411 64.0978C47.8218 63.8119 47.3142 63.382 46.9353 62.848C46.5563 62.3139 46.3183 61.6929 46.243 61.0424C46.1678 60.3919 46.2578 59.7329 46.5049 59.1264C46.8153 58.3359 47.3098 57.6308 47.9473 57.0697C51.8559 53.7007 55.844 50.4236 60.187 47.6188C62.6123 46.0526 65.2026 44.7826 68.0401 44.178C69.3053 43.8965 70.6068 43.8143 71.8975 43.9344C73.966 44.1563 75.5088 45.3079 76.1722 47.3441C76.8016 49.2771 76.2353 50.9909 74.831 52.3982C74.1353 53.0962 73.3711 53.7224 72.5498 54.2672C70.4529 55.6527 68.3108 56.9694 66.1868 58.3137Z" fill="#FFDE73"/>
<path d="M77.4567 72.6619C80.6466 74.8564 80.8074 78.4219 78.2086 80.3219C77.188 81.0522 76.0341 81.5752 74.8121 81.8612C68.0728 83.4368 61.277 84.7112 54.3326 84.894C53.1696 84.9275 52.0094 84.7642 50.901 84.4108C49.2245 83.8596 48.2611 82.5527 48.1709 80.7672C48.0826 79.0166 48.929 77.734 50.5318 77.0498C51.5265 76.6531 52.5459 76.3213 53.5836 76.0567C56.2616 75.307 58.9555 74.6141 61.6289 73.8495C63.2249 73.3931 64.7864 72.8174 66.3778 72.3433C68.9891 71.5648 71.6551 71.1863 74.3558 71.723C75.6139 71.973 76.8241 72.4655 77.4567 72.6619Z" fill="#FFDE73"/>
</svg>
