<svg width="74" height="75" viewBox="0 0 74 75" fill="none" xmlns="http://www.w3.org/2000/svg">
<path d="M36.9192 8.3804C36.8351 7.83837 36.5499 7.38635 36.5586 6.76043C36.5704 5.92046 36.9352 5.30482 37.3234 4.71773C37.752 4.06956 38.4602 3.65648 39.2548 3.4429C41.3835 2.87083 43.5088 2.89874 45.6606 3.3375C46.5699 3.5229 47.5466 3.41667 48.4359 3.6538C49.2993 3.88398 50.292 3.57157 51.0387 4.25822C52.6514 4.35778 53.9727 5.42172 55.6178 5.54371C56.6807 5.62251 57.704 6.2045 58.7504 6.54435C58.9768 6.61786 59.2263 6.62193 59.4655 6.65466C59.5636 6.66801 59.7456 6.65966 59.7493 6.6833C59.8349 7.22014 60.3991 6.94297 60.4971 7.05569C60.8181 7.42474 61.4149 7.09768 61.6757 7.71202C61.8658 8.15996 62.4006 8.05641 63.1257 7.66558C63.1544 7.80454 63.1832 7.9435 63.2366 8.20186C63.5139 8.02128 63.7776 7.90215 63.9714 7.71239C64.38 7.3122 64.2832 6.85498 63.7735 6.55148C63.0461 6.11837 62.3246 5.676 61.599 5.23984C61.4702 5.16234 61.318 5.01503 61.2044 5.03774C60.4229 5.19441 60.073 4.60659 59.62 4.14641C59.125 4.25024 58.761 4.42175 59.0793 5.04804C58.9236 5.0181 58.7969 5.01828 58.7895 4.98889C58.4979 3.82251 57.4653 3.58566 56.5443 3.20882C56.3395 3.12502 56.0605 3.09665 55.9443 2.94527C55.5164 2.38739 55.2497 2.93156 54.9231 3.0695C54.3395 2.287 53.6477 1.78288 52.6034 1.87021C52.2376 1.9008 51.8199 1.77899 51.4839 1.61157C50.6941 1.21786 49.9901 1.19979 49.3265 2.03476C49.3435 1.57681 49.3541 1.28925 49.3637 1.02857C49.2688 0.954036 49.2159 0.879497 49.1507 0.866611C48.6396 0.765473 48.1035 0.739796 47.6177 0.570614C46.4528 0.165042 45.2038 0.443061 44.0916 0.200552C42.8997 -0.0593845 41.7782 -0.0152621 40.6266 0.0505564C40.1679 0.0767911 39.7277 0.476154 39.2721 0.490801C37.9898 0.532146 36.9507 1.20367 35.876 1.72809C35.3134 2.00258 34.8028 2.56908 34.4926 3.12678C33.9298 4.13863 33.5936 5.23529 33.7074 6.45331C33.7891 7.32758 33.707 8.2166 34.0042 9.06705C34.137 9.44741 34.2835 9.82341 34.4035 10.2076C34.5102 10.549 34.5178 10.9404 34.6929 11.2378C35.2994 12.2683 35.5256 13.4563 36.0634 14.4944C36.5465 15.4266 37.1651 16.4096 37.9889 17.0127C38.7657 17.5815 38.7194 18.5343 39.5814 18.9208C39.5022 18.9916 39.423 19.0625 39.344 19.1334C39.2162 19.0394 39.0884 18.9454 38.8817 18.7934C38.3606 19.4222 37.6176 19.0403 36.9537 19.0476C36.4685 19.053 36.2052 19.217 35.907 19.6289C35.5074 18.6608 34.9615 19.4825 34.4754 19.4638C34.3736 19.4598 34.2552 19.8805 34.0588 20.2794C33.5003 20.5046 33.3245 19.9182 33.0905 19.391C32.0352 19.301 31.0259 19.5263 30.0207 19.8011C29.8671 19.8431 29.6948 19.8144 29.5314 19.8239C29.346 19.8347 29.1513 19.8203 28.9776 19.8727C28.6545 19.9703 28.2687 20.0323 28.0464 20.2486C27.7672 20.5205 27.5475 20.6419 27.1364 20.6363C26.8692 20.6326 26.5972 20.976 26.2883 21.1911C25.9858 20.6343 25.511 20.6112 25.0154 20.8776C24.2491 21.2895 23.342 21.4812 22.8767 22.3759C22.7652 22.5903 22.247 22.596 21.8025 22.7325C21.7862 22.8556 21.7537 23.1009 21.7212 23.3467C21.6593 23.3338 21.5664 23.3414 21.5442 23.3057C21.273 22.8685 20.8651 22.8268 20.6434 23.228C20.1585 24.1049 19.1049 24.4463 18.713 25.4108C18.5381 25.8414 18.0476 26.1465 18.5003 26.6947C18.5861 26.7986 18.4469 27.1162 18.3683 27.3187C18.1018 28.0062 17.9098 28.6548 18.5576 29.2783C18.813 29.5242 18.4232 30.081 18.9241 30.2925C19.4988 32.4973 20.3899 34.3197 21.7831 35.8516C22.7134 36.8745 23.7488 37.8025 24.716 38.7934C25.0948 39.1813 25.4157 39.6249 25.7812 40.0653C25.3715 40.2919 25.1091 40.437 24.7784 40.6201C24.079 39.9397 23.379 40.4795 22.7211 40.8781C22.3295 41.1153 22.04 41.3987 21.5206 41.1894C21.2248 41.0702 20.9233 41.151 20.6048 41.4157C20.3008 41.6684 19.8959 42.1955 19.3329 41.7167C19.2918 41.6816 19.0961 41.8112 18.9812 41.8792C18.4791 42.176 18.0142 42.6078 17.4723 42.7477C16.7032 42.9463 16.1866 43.4316 15.6011 43.8796C15.1752 44.2053 14.6586 44.4138 14.1103 44.7141C14.1336 44.8027 14.1857 45.0015 14.2667 45.3105C13.9632 45.1476 13.7319 45.0234 13.377 44.8328C13.4136 45.6736 12.9486 45.9136 12.1584 45.8246C12.267 46.2335 12.3508 46.5492 12.4342 46.8635C10.972 47.1305 10.0274 48.1981 9.80855 49.8268C9.74758 50.3038 9.60017 50.7659 9.37347 51.1906C8.67002 52.4636 8.67049 53.7614 9.06358 55.1121C9.14231 55.3825 9.07451 55.6916 9.12059 55.9754C9.34624 57.3679 10.2427 58.3801 11.1037 59.416C11.2536 59.5963 11.4088 59.87 11.3809 60.0765C11.3351 60.415 11.3697 60.5133 11.7352 60.5852C12.3708 60.7102 12.1334 61.8227 12.8947 61.7703C13.7691 61.7098 13.7017 62.4801 14.0907 62.8051C13.7159 63.0851 13.4098 63.3612 13.0599 63.5619C12.7001 63.7682 12.3479 64.1709 11.8611 63.6832C11.7547 63.5767 11.3542 63.6815 11.1318 63.782C10.2542 64.1783 9.3968 64.5214 8.39904 64.6415C7.73673 64.7213 7.14177 65.3735 6.52283 65.7788C6.34597 65.8947 6.20866 66.121 6.02237 66.1634C5.09831 66.374 4.41472 66.9001 3.77218 67.5747C3.20241 68.1729 2.42937 68.5826 1.87303 69.1903C0.967157 70.1799 0.648783 71.487 -1.49895e-06 72.6219C0.0859124 72.6953 0.171803 72.7687 0.257655 72.8421C1.3764 72.345 2.51314 71.8836 3.60894 71.3406C4.70315 70.7983 5.84942 70.3896 6.90007 69.7192C8.57198 68.6523 10.4102 67.8564 12.2 66.989C12.8361 66.6809 13.4633 66.3097 14.1386 66.1402C14.7146 65.9956 15.0125 65.6526 15.2641 65.138C15.7521 65.8445 16.2666 65.3151 16.7734 65.3112C16.8591 65.04 16.9462 64.764 17.0529 64.4258C17.4159 65.1982 17.9119 65.6599 18.7114 65.7463C18.891 65.7657 19.1581 65.811 19.2224 65.9305C19.7909 66.9886 21.0422 67.0631 21.8616 67.7645C22.1975 68.052 23.0129 68.019 23.1095 68.3012C23.3036 68.8682 23.7811 68.8265 24.0932 69.0923C24.7385 69.6419 25.6608 69.6056 26.2761 70.185C26.7409 69.966 26.9072 70.367 27.1748 70.5919C27.4212 70.799 27.7279 71.122 27.9811 71.0993C28.7218 71.0325 29.1184 71.9158 29.8712 71.6925C30.1221 72.4808 30.987 72.3292 31.5216 72.7035C32.0559 73.0774 32.8674 73.0394 33.5298 73.2626C33.8296 73.3637 34.2722 73.2632 34.4214 73.756C34.4572 73.8743 34.8917 73.8814 35.1454 73.9243C35.4361 73.9735 35.9018 73.9072 35.9919 74.0627C36.3589 74.6955 36.9774 74.2764 37.4398 74.4929C37.9405 74.7366 38.486 74.8767 39.0429 74.9044C40.3687 74.9353 41.6976 75.1265 43.0274 74.8616C43.5218 74.763 44.0494 74.8417 44.5548 74.7816C44.9272 74.739 45.2911 74.641 45.6343 74.4909C46.0029 74.3259 46.3907 74.1275 46.662 73.8421C47.0314 73.4537 47.2982 72.9691 47.7556 72.3166C47.1283 72.4279 46.7882 72.4882 46.4481 72.5485C47.1091 72.5227 47.0238 71.5532 47.7506 71.5622C47.7991 70.9994 47.6811 70.598 46.93 70.6163C47.018 70.3018 47.095 70.0272 47.1932 69.6764C46.8577 69.5453 46.5586 69.4285 46.197 69.2872C46.2171 69.0598 46.2387 68.8134 46.259 68.5822C46.0815 68.6622 45.8722 68.7565 45.5119 68.9188C45.5934 68.5949 45.6399 68.41 45.7122 68.1229C45.3464 67.9818 44.9493 67.8281 44.5517 67.6757C44.4523 67.6376 44.2747 67.6206 44.2623 67.5653C44.0411 66.576 42.8366 66.4238 42.5077 65.5239C42.4694 65.4194 42.2671 65.3193 42.1356 65.3121C41.3147 65.2679 40.7594 64.6594 40.0554 64.3687C39.4007 64.0983 38.5527 64.2531 38.0672 63.7181C37.5695 63.1698 36.8759 63.4983 36.352 63.1009C35.8693 62.7346 35.2568 62.5028 34.6669 62.3242C34.3401 62.2253 33.9424 62.3569 33.5183 62.3889C33.3786 62.262 33.1441 61.8966 32.9789 61.9254C32.2568 62.0508 31.5977 61.7023 30.9066 61.7378C30.0521 61.7818 29.9329 61.7649 29.3391 61.1455C29.2142 61.3169 29.0981 61.4759 28.9693 61.6526C28.7801 61.4596 28.5856 61.261 28.3234 60.9932C28.1115 61.383 27.9457 61.6879 27.7798 61.9929C27.7253 61.9825 27.6707 61.972 27.6162 61.9616C27.6502 61.7463 27.6841 61.5312 27.7301 61.2393C27.3013 61.032 26.8355 60.9109 26.3595 60.8829C25.8834 60.8549 25.4065 60.9205 24.9561 61.0759C24.4804 61.2357 24.5094 60.8899 24.2551 60.7734C23.6788 61.291 23.0671 61.2989 22.4665 60.7639C22.2034 60.9815 21.9765 61.1694 21.6999 61.3982C21.6191 61.224 21.5459 61.0659 21.4726 60.9075C20.6398 61.0182 20.6398 61.0182 20.3041 61.7045C20.0222 61.5532 19.7328 61.2603 19.4621 61.2764C18.3688 61.342 17.7053 60.6297 16.9252 60.0771C16.1053 59.4962 15.5673 58.5641 14.5609 58.2246C14.2221 57.3326 13.2584 56.7837 13.157 55.7729C13.0703 54.908 12.3748 54.1362 12.7853 53.1862C12.6003 53.1492 12.4316 53.1154 12.2645 53.0819C12.5243 52.739 12.9004 52.4363 13.004 52.0595C13.1521 51.5205 12.6441 51.4265 12.2367 51.3693C12.13 50.5225 12.8229 50.921 13.2029 50.7548C13.3898 49.4079 14.275 48.617 15.408 47.9373C16.0895 47.5283 16.6067 46.8488 17.2204 46.2697C17.2612 46.3656 17.2992 46.455 17.3036 46.4652C19.0113 45.8425 20.7134 45.1902 22.44 44.6106C22.9813 44.429 23.5665 44.5844 24.0809 44.0566C24.3828 43.7468 25.1916 43.9889 25.6445 43.7466C26.4897 43.2942 27.4415 43.2674 28.3054 42.9186C28.5215 42.8313 28.8764 43.1383 29.1359 43.0916C29.8976 42.9542 30.4108 43.4332 30.9304 43.7855C31.8281 44.3943 32.5889 45.2155 33.5177 45.7618C34.2015 46.1639 35.0008 46.3853 35.6446 46.8914C35.6908 46.9276 35.841 46.8665 35.8601 46.8988C36.5054 47.9933 37.7404 48.3176 38.702 48.9747C40.0916 49.9068 41.5588 50.7191 43.0877 51.4027C43.7691 51.7138 44.2998 52.2192 44.9892 52.5167C45.5578 52.7622 45.9531 53.378 46.6978 53.3419C46.852 53.3344 47.0594 53.4816 47.1673 53.6166C47.7525 54.3494 48.6189 54.5705 49.4292 54.9058C50.3533 55.2881 51.2417 55.768 52.1868 56.0842C53.0424 56.3591 53.9226 56.5514 54.8153 56.6582C55.4826 56.7452 56.2245 56.8206 56.8395 56.619C57.7187 56.3308 58.5233 55.8038 59.3372 55.34C59.6752 55.1473 60.0614 54.0231 60.0333 53.573C60.0217 53.3881 59.9968 53.1871 60.0537 53.0186C60.1682 52.6795 60.3365 52.3585 60.4793 52.0286C60.6366 51.665 60.0868 51.6552 60.1364 51.1612C60.2325 50.206 59.5756 49.3135 58.878 48.7207C58.5045 48.4032 58.4182 48.0318 58.1738 47.6945C57.949 47.7527 57.7408 47.8066 57.4849 47.8729C57.333 46.9745 56.7378 46.4686 56.032 46.0193C55.6844 45.7981 55.4717 45.2877 55.1142 45.1782C54.3651 44.9488 53.7724 44.1971 52.8986 44.4294C52.1478 44.6291 51.7485 44.0273 51.4122 43.6712C50.8117 43.035 50.1131 42.6426 49.3391 42.8886C49.081 42.9707 48.7959 42.9692 48.4535 43.0151C48.5282 42.5731 48.5783 42.2768 48.6275 41.9851C48.4807 41.9482 48.3624 41.8953 48.3455 41.9177C47.9313 42.4679 47.5465 41.9438 47.2016 41.8405C46.7421 41.703 46.4711 41.0061 45.8211 41.3869C45.8026 41.3978 45.735 41.3674 45.7229 41.3413C45.1794 40.1719 44.4445 41.1053 43.7073 41.1047C43.6993 40.9325 43.6882 40.6954 43.6763 40.4411C43.3774 40.39 42.956 40.7623 42.7818 40.1859C42.7471 40.071 42.395 39.9218 42.2914 39.9771C41.456 40.4236 40.9206 39.8503 40.258 39.3306C40.065 39.6856 39.9109 39.9689 39.7308 40.3001C39.4569 39.9542 39.2768 39.5215 38.9625 39.377C38.4684 39.1498 37.8886 39.0554 37.3367 39.0141C36.143 38.9248 34.9441 39.1222 33.7413 38.9343C33.4327 38.8861 33.0634 39.221 32.6381 39.419C32.1142 38.6411 31.3314 39.5041 30.8352 39.3815C30.4947 39.0281 30.2824 38.6121 30.0466 38.5984C29.2061 38.5497 29.0071 37.9258 28.6928 37.365C28.6228 37.2403 28.4601 37.1549 28.3234 37.0823C28.1843 37.0083 27.9468 37.017 27.8864 36.9128C27.3877 36.0519 26.797 35.2985 25.8691 34.8464C25.7437 34.7852 25.7595 34.4658 25.6316 34.3761C25.4008 34.2144 25.111 34.1358 24.7286 33.9725C24.7744 33.4646 24.2208 33.0507 23.9686 32.4866C23.7169 31.9236 23.174 31.492 22.9046 30.9334C22.4967 30.0876 21.9851 29.2953 21.8939 28.2893C21.7558 26.7672 22.4313 25.8731 23.7351 25.2484C24.068 25.089 24.2861 24.6927 24.5581 24.4053C24.6398 23.9198 24.6398 23.9198 25.1063 24.0524C24.8976 24.1796 24.7107 24.2935 24.524 24.4073C24.4959 24.5941 24.4678 24.781 24.4453 24.9306C25.4995 24.5803 26.6315 24.1998 27.7666 23.8291C28.2104 23.6841 28.8224 23.6946 29.0724 23.3974C29.4692 22.9257 30.0691 23.2044 30.4487 22.8303C30.4963 22.7833 30.8347 23.0277 31.1707 23.2081C31.1605 22.8531 31.1547 22.6543 31.1493 22.4647C31.2193 22.4418 31.313 22.3813 31.3456 22.4048C32.534 23.2621 33.7121 22.5315 34.8894 22.3722C34.9587 22.3629 35.0284 22.1443 35.0466 22.0159C35.0933 21.6847 35.3307 21.654 35.5312 21.7718C35.6363 21.8336 35.6241 22.0928 35.6801 22.3261C36.3515 22.0672 37.0406 21.8447 37.7201 22.3188C37.7715 22.3438 37.8276 22.3578 37.8847 22.3598C37.9419 22.3617 37.9988 22.3517 38.0518 22.3302C39.4063 21.7702 40.8701 22.3274 42.234 21.9204C42.6348 21.8008 42.8346 22.0174 43.1183 22.2333C44.1532 23.0208 45.2242 23.7619 46.2882 24.511C46.9553 24.9808 47.6247 25.4484 48.31 25.8913C50.0949 27.0449 51.8892 28.1844 53.6797 29.3294C54.4831 29.265 54.8542 29.9624 55.4345 30.2925C56.0444 30.6545 56.6981 30.938 57.3799 31.1362C58.6752 31.483 59.7199 32.3369 60.9386 32.7763C61.5439 32.9945 62.1315 33.5471 62.8876 33.3076C62.9483 33.2884 63.0621 33.2885 63.0863 33.3237C63.7634 34.3087 65.0702 33.912 65.8844 34.5882C67.0978 34.1054 68.1467 35.3984 69.3556 34.909C69.7608 34.7449 70.0346 35.5144 70.4638 35.0401C71.405 35.2163 72.0624 34.5804 72.8439 34.2159C72.7815 34.0598 72.7186 33.9024 72.6557 33.7448C74.1035 33.2869 74.2196 32.9773 73.7608 30.7993C73.614 30.7714 73.4654 30.7432 73.3182 30.7173C73.3403 31.0476 73.3646 31.3756 73.3807 31.704C73.3945 31.9839 73.3991 32.2642 73.4078 32.5442C72.9411 31.933 72.5938 31.332 73.3343 30.7444C73.5734 30.1954 74.1145 29.7096 73.6998 29.0135C73.5658 29.0482 73.434 29.0823 73.2938 29.1186C73.2497 28.5524 73.5048 27.8762 72.7327 27.5745C72.9393 26.6424 71.417 26.4683 71.7947 25.4611C71.4426 25.0774 71.1607 24.5602 70.7257 24.3334C69.0965 23.484 67.6697 22.2661 65.9121 21.6697C65.4456 21.5114 64.8923 21.6056 64.2851 21.5799C63.9594 20.949 63.4087 20.7068 62.5547 20.6968C61.8376 20.6884 61.1267 20.2159 60.4111 19.9545C60.1849 19.8579 59.9494 19.7847 59.7082 19.736C58.7156 19.5938 57.6309 19.6781 56.7462 19.2978C55.4285 18.7312 54.0989 18.8933 52.7694 18.7755C52.4048 18.7432 52.0449 18.6468 51.6805 18.6295C51.3633 18.6143 51.0428 18.6691 50.5714 18.7045C50.5667 18.6971 50.4518 18.5174 50.4079 18.449C49.7012 18.3738 49.0591 18.2622 48.4148 18.2471C47.3933 18.2231 46.3764 17.9576 45.3444 18.3221C44.4459 18.6396 43.5925 18.1519 42.9818 17.6559C41.9401 16.8097 40.9851 15.8226 40.2454 14.6744C40.1187 14.4779 40.0995 14.1946 39.9417 14.0423C39.8286 13.9332 39.5673 13.9757 39.2763 13.9382C39.2907 13.7718 39.2904 13.6046 39.2754 13.4383C39.2366 13.1599 39.2381 12.8185 39.075 12.6297C38.8805 12.4045 38.5324 12.2085 38.2469 12.203C38.0886 12.1999 37.9222 12.6115 37.7251 12.8835C37.6235 12.8347 37.4616 12.7571 37.2926 12.6761C37.5027 12.2205 37.7438 11.8135 37.8683 11.3739C37.9231 11.1809 37.7402 10.9216 37.6656 10.693C37.6551 10.8825 37.644 11.0713 37.6268 11.3614C37.1114 10.7054 37.1114 10.7054 37.6044 10.623C37.5134 10.2917 37.4224 9.96051 37.2876 9.46975C37.0754 9.86003 36.9297 10.1279 36.7838 10.3963C36.2729 9.82267 36.3207 9.64263 37.2283 8.78152C37.1231 8.6345 37.0149 8.48339 36.9069 8.33349C36.5843 8.69142 36.5843 8.69142 36.2673 8.18471C36.5355 8.26527 36.7274 8.32283 36.9192 8.3804ZM48.5688 21.9697C48.6062 21.8927 48.6435 21.8157 48.6808 21.7388C50.2577 21.8606 51.842 21.9245 53.4091 22.1226C54.6451 22.279 55.8565 22.6192 57.0852 22.8433C58.3403 23.0722 59.5877 23.2842 60.8217 23.6538C62.9979 24.3055 65.2147 24.827 67.132 26.1078C67.8182 26.5663 68.7286 26.8193 68.9309 27.7977C69.5896 27.9376 69.4387 28.6223 69.7425 29.0092C70.0606 29.4145 70.2779 29.8999 70.524 30.3585C70.8783 31.0188 70.5649 31.639 70.1742 32.0791C69.969 32.31 69.5664 32.6444 68.9177 32.3596C68.0348 31.9721 67.1896 31.3102 66.0916 31.4449C65.8077 31.4796 65.3606 31.2773 65.2026 31.0419C64.7639 30.3885 64.0722 30.4068 63.4514 30.1989C62.8553 29.9991 62.2858 29.7213 61.7028 29.4821C61.1538 29.2568 60.6122 29.0061 60.0467 28.8324C59.857 28.7742 59.6043 28.9188 59.3803 28.9708C59.1386 28.527 58.8063 28.1582 58.3743 28.0555C57.572 27.8648 56.7954 27.6823 56.3915 26.8469C56.3385 26.7372 56.144 26.694 56.0136 26.6227C54.6834 25.8949 53.295 25.2533 52.0406 24.4137C51.0054 23.7207 50.0396 22.9263 48.9218 22.3515C48.7768 22.2768 48.6852 22.0995 48.5688 21.9697ZM36.3671 42.4566C37.4814 42.6054 38.4827 42.8963 39.4506 42.8113C40.0166 42.7627 40.5868 42.8191 41.1321 42.9776C42.1331 43.2509 43.11 43.7128 44.1241 43.8067C45.0267 43.8903 45.7722 44.3184 46.5558 44.598C47.8345 45.0545 49.0031 45.824 50.2026 46.489C51.2104 47.0476 52.1714 47.6943 53.2011 48.207C53.791 48.5008 54.2003 48.9157 54.5858 49.4115C55.0327 49.9863 55.6995 50.3434 56.0067 51.0828C56.4668 52.1904 56.466 52.3259 55.3371 52.7866C55.2732 52.8208 55.213 52.8614 55.1574 52.9078C54.678 52.5132 54.1769 52.2615 53.5686 52.8318C53.3242 52.0233 52.5938 52.0658 52.0811 51.7561C50.8768 51.0288 49.4616 50.7429 48.3155 49.9117C48.2597 49.8712 48.1651 49.8882 48.0973 49.8587C47.4637 49.5835 46.7495 49.4072 46.2258 48.9933C45.8075 48.6626 45.274 48.5748 44.9498 48.3017C44.5367 47.9491 44.0486 47.6939 43.522 47.5554C42.5737 47.2899 42.0687 46.2313 41.0105 46.1529C40.1928 44.9318 38.8089 44.4613 37.668 43.6695C37.216 43.3558 36.7396 43.0814 36.146 43.1535C36.1101 43.1579 36.0604 43.0496 35.9891 42.9576C36.1153 42.7904 36.2487 42.6134 36.3671 42.4566ZM22.8266 64.3828C23.802 63.9111 24.6983 64.0117 25.4955 63.6951C25.5622 63.6753 25.6327 63.6715 25.7011 63.6841C25.7695 63.6966 25.834 63.7252 25.8891 63.7674C26.3728 64.3068 27.1457 63.8114 27.6406 64.2712C28.4181 63.9454 29.0958 64.3957 29.7641 64.6224C30.4183 64.8444 31.1021 64.8152 31.7434 64.9068C33.0848 65.0985 34.1846 66.0248 35.5854 65.9767C35.9445 65.9643 36.3114 66.3368 36.6844 66.5123C37.0241 66.6722 37.366 66.8489 37.7269 66.9367C38.0856 67.024 38.4692 67.0098 38.8418 67.0402C38.7061 67.8909 39.3972 67.3209 39.6152 67.4994C40.016 67.8484 40.4636 68.1404 40.9454 68.3669C41.4551 68.5922 41.8943 68.977 42.3593 69.2995C42.9763 69.7276 43.5884 70.163 44.2834 70.6521C44.4437 71.2342 44.2593 71.7708 43.5628 72.0954C43.4861 71.9341 43.3741 71.6344 43.3429 71.6426C42.9469 71.7453 42.5623 71.8923 42.1532 72.0355C41.963 71.9335 41.7015 71.6804 41.4502 71.69C41.2043 71.6995 40.9688 71.9767 40.7295 72.1376C39.9703 71.2345 39.9703 71.2345 39.2713 71.5984C39.0835 71.3818 38.9369 71.0547 38.71 70.9848C38.2665 70.8479 37.7653 70.904 37.3117 70.7881C36.8353 70.6664 36.3868 70.4369 36.0488 70.303C35.7026 70.8033 35.3751 71.2765 35.0476 71.7496C35.0205 71.4766 35.1224 71.2798 35.2014 71.0743C35.5174 70.252 35.4417 70.136 34.5327 69.8986C34.3716 69.8481 34.2318 69.7463 34.1348 69.6089C33.9746 69.3785 33.8231 69.3259 33.5675 69.4605C33.4557 69.5193 33.1942 69.5322 33.1676 69.4808C32.7279 68.6294 31.9631 68.9454 31.2882 68.9354C31.216 68.9203 31.1471 68.8924 31.0848 68.8532C31.0011 68.5423 30.9174 68.2313 30.8282 67.8997C29.6344 67.9096 28.8296 67.1554 27.9104 66.6506C26.9266 66.1101 26.052 65.3158 24.8352 65.3733C24.6816 64.5299 24.54 64.3494 24.0049 64.6311C23.4377 64.93 23.3389 64.4104 22.8266 64.3828ZM46.3347 42.5405C46.3464 42.6937 46.385 42.7911 46.352 42.8339C46.1831 43.0551 45.9983 43.264 45.7992 43.4588C45.6885 43.3828 45.5832 43.2992 45.4842 43.2087C45.6684 43.011 45.8478 42.8083 46.0405 42.6191C46.0839 42.5765 46.1741 42.5809 46.3347 42.5405ZM64.3382 30.6933C64.5373 31.0248 64.6624 31.2333 64.7877 31.4419C64.4158 31.393 63.9363 31.4466 64.3382 30.6933ZM23.9857 66.4099C23.885 66.3977 23.7842 66.3854 23.6834 66.3731C23.7132 66.1477 23.7429 65.9222 23.7728 65.6967C23.86 65.7049 23.9472 65.7132 24.0345 65.7214C24.0182 65.9509 24.0019 66.1804 23.9857 66.4099ZM13.7556 60.3249C13.6997 60.2866 13.6437 60.2482 13.5876 60.2098C13.7611 59.9821 13.9345 59.7544 14.108 59.5267C14.1275 59.541 14.1469 59.5552 14.1664 59.5695C14.0295 59.8213 13.8926 60.0731 13.7556 60.3249ZM72.0237 28.5529C72.0879 28.5708 72.152 28.5888 72.2161 28.6068C72.1651 28.7912 72.114 28.9756 72.0629 29.16C71.9964 29.1407 71.9299 29.1214 71.8634 29.1022C71.9169 28.9191 71.9703 28.736 72.0237 28.5529ZM12.0205 57.6425C12.5621 57.887 12.5621 57.887 12.2262 58.1512C12.1538 57.9721 12.0871 57.8073 12.0205 57.6425ZM13.5024 64.2531C13.4606 64.244 13.4188 64.235 13.3771 64.2259C13.4072 64.0415 13.4374 63.857 13.4676 63.6726C13.5266 63.685 13.5857 63.6974 13.6448 63.7097L13.5024 64.2531Z" fill="white"/>
</svg>
