<svg width="197" height="193" viewBox="0 0 197 193" fill="none" xmlns="http://www.w3.org/2000/svg">
<path d="M63.5407 168.097L57.5659 180.91L49.4237 177.114L50.1356 175.587L56.3876 178.502L58.2945 174.413L52.4241 171.676L53.136 170.149L59.0064 172.886L61.6505 167.216L63.5407 168.097Z" fill="black"/>
<path d="M47.099 154.854C47.8595 155.487 48.3847 156.193 48.6745 156.974C48.9541 157.745 49.0044 158.552 48.8253 159.395C48.6462 160.237 48.2275 161.054 47.5691 161.845C46.9021 162.647 46.1751 163.207 45.3879 163.526C44.5922 163.855 43.7895 163.953 42.9798 163.818C42.1597 163.675 41.3695 163.287 40.609 162.654C39.8588 162.03 39.3439 161.332 39.0643 160.56C38.7744 159.78 38.719 158.969 38.8981 158.126C39.0772 157.284 39.496 156.467 40.1544 155.676C40.8128 154.885 41.5398 154.324 42.3355 153.995C43.1312 153.666 43.9391 153.573 44.7591 153.716C45.5688 153.85 46.3488 154.23 47.099 154.854ZM46.114 156.069C45.4666 155.531 44.7552 155.33 43.9799 155.468C43.2046 155.605 42.4535 156.111 41.7267 156.984C40.9914 157.868 40.6308 158.698 40.6451 159.475C40.6594 160.253 40.9902 160.91 41.6377 161.449C42.2748 161.979 42.9768 162.181 43.7436 162.054C44.5103 161.926 45.2614 161.421 45.9967 160.537C46.7235 159.663 47.0841 158.833 47.0783 158.046C47.0726 157.258 46.7512 156.599 46.114 156.069Z" fill="black"/>
<path d="M33.9944 135.761C34.6151 136.632 34.8357 137.459 34.6561 138.244C34.4579 139.025 33.8907 139.75 32.9544 140.417L24.1849 146.667L23.0094 145.017L31.6809 138.838C32.0293 138.589 32.2938 138.327 32.4744 138.05C32.6441 137.782 32.719 137.507 32.6991 137.226C32.6792 136.944 32.5645 136.657 32.355 136.363C32.2619 136.232 32.1672 136.111 32.071 135.999C31.9747 135.887 31.8715 135.788 31.7612 135.702L33.1073 134.792C33.2827 134.946 33.4434 135.103 33.5893 135.261C33.7353 135.42 33.8703 135.586 33.9944 135.761Z" fill="black"/>
<path d="M26.565 115.185C26.9432 116.185 26.9456 117.042 26.5721 117.755C26.1813 118.46 25.4482 119.016 24.3728 119.423L14.3002 123.231L13.5838 121.337L23.5438 117.571C23.944 117.419 24.2666 117.233 24.5116 117.012C24.7442 116.795 24.8866 116.548 24.9391 116.271C24.9915 115.994 24.9539 115.687 24.8262 115.349C24.7695 115.199 24.7088 115.058 24.6443 114.925C24.5798 114.792 24.5051 114.67 24.4203 114.559L25.9538 114.022C26.0843 114.216 26.1998 114.408 26.3005 114.599C26.4011 114.789 26.4893 114.985 26.565 115.185Z" fill="black"/>
<path d="M23.1897 95.6132C23.2923 96.5972 23.1749 97.4697 22.8375 98.2307C22.4988 98.9784 21.9713 99.5912 21.255 100.069C20.5386 100.547 19.6685 100.839 18.6447 100.946C17.6075 101.054 16.6959 100.948 15.9096 100.626C15.1101 100.307 14.4675 99.8157 13.9819 99.154C13.4948 98.4789 13.2 97.6494 13.0974 96.6655C12.9962 95.6948 13.1149 94.8356 13.4537 94.0879C13.791 93.3269 14.3178 92.7074 15.0341 92.2295C15.7505 91.7516 16.6206 91.4592 17.6444 91.3525C18.6683 91.2457 19.58 91.3523 20.3795 91.6722C21.179 91.9921 21.8223 92.4895 22.3093 93.1646C22.795 93.8263 23.0885 94.6425 23.1897 95.6132ZM21.636 95.7954C21.5487 94.9577 21.1795 94.3174 20.5284 93.8745C19.8774 93.4316 18.9868 93.2691 17.8565 93.3869C16.713 93.5061 15.8751 93.8489 15.3427 94.4152C14.8103 94.9814 14.5878 95.6834 14.6751 96.5211C14.7611 97.3455 15.1229 97.9799 15.7607 98.4241C16.3984 98.8684 17.2891 99.031 18.4326 98.9117C19.5628 98.7939 20.4008 98.4511 20.9464 97.8835C21.4921 97.3158 21.722 96.6198 21.636 95.7954Z" fill="black"/>
<path d="M23.6442 82.6277L13.4024 84.8149L13.7218 82.754L22.1471 81.1579L22.0734 81.6335L14.5387 77.4827L14.7782 75.937L23.2067 74.3211L23.1391 74.7571L15.5952 70.6658L15.8992 68.7039L24.9986 73.8885L24.716 75.7117L15.9993 77.4859L16.1528 76.495L23.9267 80.8046L23.6442 82.6277Z" fill="black"/>
<path d="M38.5778 48.4706C38.0886 49.0893 37.5628 49.5172 37.0004 49.7543C36.4463 49.9808 35.8609 50.0207 35.2441 49.8739C34.6252 49.7083 33.9696 49.3519 33.2775 48.8046L28.5584 45.0733L29.8147 43.4845L34.5494 47.2283C34.9584 47.5517 35.3407 47.7687 35.6963 47.8795C36.0601 47.9797 36.3962 47.9642 36.7045 47.833C37.021 47.6913 37.3203 47.4422 37.6022 47.0856C37.9173 46.6871 38.1059 46.2653 38.1681 45.8203C38.2303 45.3752 38.1599 44.9361 37.957 44.503C37.7541 44.0698 37.4324 43.6791 36.992 43.3309L32.6505 39.898L33.9067 38.3093L41.583 44.3789L40.3641 45.9205L38.681 44.5897L38.8427 44.3852C39.2641 45.0592 39.4497 45.7514 39.3994 46.4615C39.3492 47.1717 39.0753 47.8414 38.5778 48.4706Z" fill="black"/>
<path d="M50.5414 35.821C50.1245 36.134 49.6902 36.4017 49.2385 36.6239C48.7867 36.8461 48.343 37.0121 47.9072 37.122C47.4715 37.2319 47.049 37.2816 46.6399 37.2712L46.2861 35.8316C46.6899 35.8126 47.0936 35.7602 47.4972 35.6744C47.8929 35.5779 48.2752 35.4413 48.6441 35.2646C49.0236 35.0799 49.3684 34.8711 49.6784 34.6383C50.245 34.2129 50.5963 33.7902 50.7325 33.3703C50.8686 32.9505 50.8082 32.5695 50.5513 32.2274C50.3426 31.9494 50.0858 31.8079 49.781 31.8027C49.4681 31.7869 49.0872 31.8807 48.6381 32.0842L46.886 32.9235C46.1188 33.2822 45.4317 33.4137 44.8247 33.3178C44.2177 33.2219 43.7095 32.9013 43.3001 32.3561C42.9308 31.8644 42.7433 31.3364 42.7376 30.7723C42.7319 30.2081 42.8974 29.6492 43.2339 29.0955C43.5624 28.5311 44.0421 28.0121 44.6728 27.5385C45.0363 27.2655 45.4171 27.038 45.8154 26.856C46.2137 26.6739 46.6147 26.54 47.0184 26.4542C47.4328 26.3603 47.8271 26.34 48.2015 26.3933L48.5553 27.8329C48.2157 27.8037 47.8641 27.8253 47.5005 27.8977C47.1476 27.9621 46.8081 28.0666 46.482 28.2112C46.1479 28.3451 45.8418 28.5164 45.5639 28.7251C44.9973 29.1506 44.65 29.5786 44.5219 30.0091C44.3965 30.421 44.4662 30.8033 44.7311 31.1561C44.9318 31.4233 45.1819 31.5783 45.4814 31.6209C45.7809 31.6634 46.1405 31.5857 46.5602 31.3876L48.3123 30.5483C49.1115 30.1654 49.812 30.0073 50.4136 30.0737C51.0259 30.1322 51.5448 30.4447 51.9703 31.0113C52.3396 31.503 52.5271 32.031 52.5328 32.5952C52.5385 33.1593 52.3677 33.7223 52.0204 34.284C51.6759 34.827 51.1828 35.3393 50.5414 35.821Z" fill="black"/>
<path d="M80.853 22.9986C79.8719 23.1257 78.9968 23.0301 78.2276 22.7118C77.4717 22.3919 76.8459 21.8798 76.3502 21.1756C75.8546 20.4714 75.5407 19.6089 75.4084 18.588C75.2745 17.5539 75.3583 16.6398 75.6598 15.8458C75.9597 15.0386 76.4343 14.384 77.0838 13.8819C77.7465 13.3782 78.5684 13.0628 79.5495 12.9357C80.5173 12.8103 81.3792 12.9076 82.1351 13.2276C82.9043 13.5458 83.5367 14.0571 84.0323 14.7613C84.528 15.4654 84.8419 16.328 84.9741 17.3489C85.1064 18.3697 85.0226 19.2838 84.7227 20.091C84.4229 20.8983 83.9416 21.5537 83.2789 22.0575C82.6295 22.5595 81.8208 22.8732 80.853 22.9986ZM80.6322 21.45C81.4674 21.3418 82.0983 20.9567 82.5248 20.2949C82.9514 19.633 83.0916 18.7386 82.9457 17.6116C82.798 16.4714 82.4344 15.6423 81.855 15.1242C81.2757 14.6061 80.5683 14.4011 79.7331 14.5093C78.9111 14.6158 78.286 14.9934 77.8577 15.642C77.4295 16.2906 77.2892 17.185 77.4369 18.3252C77.5829 19.4522 77.9464 20.2813 78.5275 20.8127C79.1086 21.344 79.8102 21.5564 80.6322 21.45Z" fill="black"/>
<path d="M96.1287 22.5341L97.3859 12.8291L99.3348 13.0816L99.0669 15.1498L98.8481 15.1215C99.236 14.4168 99.7655 13.9192 100.437 13.6287C101.11 13.325 101.851 13.2255 102.659 13.3302C103.428 13.4299 104.046 13.6581 104.512 14.0151C104.993 14.3605 105.321 14.8412 105.498 15.4572C105.676 16.0599 105.708 16.7988 105.595 17.6738L104.819 23.6598L102.811 23.3997L103.571 17.5329C103.643 16.9761 103.628 16.5159 103.527 16.1523C103.428 15.7754 103.243 15.4819 102.974 15.2718C102.705 15.0616 102.338 14.9265 101.874 14.8664C101.344 14.7977 100.858 14.8494 100.418 15.0216C99.9912 15.1954 99.6375 15.4799 99.3572 15.875C99.0901 16.2717 98.9205 16.7486 98.8483 17.3054L98.1373 22.7943L96.1287 22.5341Z" fill="black"/>
<path d="M146.003 25.1185L147.267 23.4348L149.159 24.8558L147.895 26.5395L146.003 25.1185ZM138.91 34.8642L144.786 27.0389L146.406 28.2551L140.529 36.0804L138.91 34.8642Z" fill="black"/>
<path d="M155.43 46.0147L163.106 39.9451L164.325 41.4866L162.689 42.7801L162.553 42.6071C163.322 42.3735 164.049 42.387 164.732 42.6477C165.426 42.9001 166.026 43.3462 166.532 43.9859C167.013 44.5941 167.295 45.1887 167.38 45.7696C167.483 46.3527 167.382 46.9263 167.079 47.4904C166.785 48.0462 166.292 48.5977 165.6 49.145L160.865 52.8888L159.609 51.3L164.25 47.6309C164.69 47.2826 165.001 46.943 165.182 46.6121C165.374 46.2729 165.447 45.934 165.401 45.5955C165.355 45.257 165.187 44.9042 164.897 44.5372C164.565 44.1177 164.182 43.8159 163.746 43.6318C163.319 43.4581 162.867 43.4148 162.391 43.5019C161.923 43.5995 161.468 43.8224 161.028 44.1706L156.686 47.6035L155.43 46.0147Z" fill="black"/>
<path d="M168.376 62.7917C168.168 62.3138 168.008 61.8294 167.896 61.3386C167.784 60.8478 167.724 60.3778 167.718 59.9284C167.712 59.4791 167.761 59.0565 167.865 58.6609L169.347 58.6486C169.273 59.0458 169.231 59.4507 169.221 59.8633C169.224 60.2706 169.269 60.674 169.355 61.0737C169.448 61.4857 169.571 61.8693 169.726 62.2246C170.01 62.8741 170.34 63.3134 170.717 63.5427C171.094 63.772 171.479 63.8011 171.871 63.63C172.189 63.491 172.386 63.2738 172.462 62.9784C172.549 62.6776 172.546 62.2853 172.451 61.8014L172.039 59.9029C171.867 59.0737 171.897 58.3748 172.131 57.8063C172.364 57.2378 172.793 56.8172 173.418 56.5445C173.982 56.2986 174.538 56.2379 175.089 56.3625C175.639 56.4871 176.145 56.7769 176.606 57.2321C177.079 57.6819 177.474 58.2683 177.789 58.9913C177.971 59.4079 178.104 59.831 178.19 60.2605C178.275 60.69 178.313 61.1111 178.303 61.5237C178.299 61.9486 178.228 62.337 178.09 62.689L176.607 62.7012C176.714 62.3775 176.774 62.0305 176.787 61.66C176.806 61.3017 176.783 60.9473 176.717 60.5966C176.664 60.2406 176.568 59.9033 176.429 59.5847C176.146 58.9353 175.809 58.4986 175.42 58.2747C175.048 58.0577 174.66 58.0374 174.256 58.2138C173.949 58.3474 173.741 58.5551 173.63 58.8367C173.52 59.1183 173.513 59.4861 173.608 59.9401L174.021 61.8386C174.209 62.7046 174.202 63.4226 173.998 63.9927C173.8 64.575 173.376 65.0079 172.727 65.2912C172.163 65.5371 171.606 65.5978 171.056 65.4733C170.506 65.3487 169.997 65.0527 169.531 64.5853C169.082 64.1247 168.697 63.5269 168.376 62.7917Z" fill="black"/>
<path d="M173.814 78.8038C173.627 77.6015 173.797 76.6485 174.324 75.9445C174.853 75.2538 175.705 74.8173 176.881 74.6351L181.558 73.9103L181.266 72.0277L182.812 71.7881L183.104 73.6707L186.017 73.2193L186.327 75.2208L183.414 75.6722L183.877 78.6646L182.332 78.9041L181.868 75.9118L177.35 76.612C176.65 76.7205 176.144 76.9477 175.832 77.2937C175.522 77.6528 175.42 78.1693 175.524 78.843C175.555 79.0412 175.612 79.2353 175.696 79.4252C175.781 79.6284 175.866 79.825 175.949 80.015L174.492 80.5655C174.343 80.3857 174.207 80.1226 174.086 79.7762C173.953 79.445 173.863 79.1208 173.814 78.8038Z" fill="black"/>
<path d="M173.947 96.5109C174.018 95.8327 174.214 95.2349 174.537 94.7175C174.859 94.2133 175.261 93.8319 175.745 93.5732C176.229 93.3145 176.757 93.215 177.329 93.2746C178.047 93.3495 178.593 93.5879 178.968 93.9899C179.355 94.4066 179.591 95.0428 179.676 95.8985C179.774 96.7689 179.748 97.9221 179.598 99.3582L179.5 100.296L178.264 100.167L178.359 99.2492C178.434 98.5312 178.471 97.9234 178.469 97.4259C178.467 96.9283 178.421 96.5271 178.332 96.2221C178.256 95.9184 178.126 95.6898 177.94 95.536C177.753 95.3955 177.52 95.3107 177.241 95.2816C176.735 95.2289 176.305 95.3588 175.95 95.6713C175.608 95.9851 175.405 96.4478 175.341 97.0595C175.29 97.5515 175.358 97.9954 175.545 98.3913C175.746 98.7885 176.035 99.1144 176.411 99.3687C176.787 99.6363 177.234 99.7972 177.752 99.8513L180.046 100.09C180.804 100.169 181.366 100.067 181.731 99.7822C182.097 99.4978 182.318 98.9899 182.394 98.2586C182.452 97.7001 182.424 97.1326 182.31 96.5561C182.208 95.981 182.009 95.3822 181.711 94.7597L183.191 94.2891C183.394 94.6598 183.559 95.0801 183.685 95.5503C183.81 96.0204 183.894 96.5063 183.936 97.008C183.99 97.5243 183.992 98.0152 183.944 98.4806C183.851 99.3715 183.635 100.088 183.296 100.631C182.956 101.187 182.485 101.575 181.884 101.794C181.284 102.014 180.531 102.077 179.627 101.982L173.623 101.356L173.821 99.4615L175.995 99.6882L175.976 99.8677C175.495 99.71 175.091 99.4662 174.762 99.1363C174.445 98.821 174.216 98.4409 174.074 97.996C173.933 97.5511 173.89 97.056 173.947 96.5109Z" fill="black"/>
<path d="M165.997 118.941C166.309 118.116 166.7 117.385 167.169 116.748C167.639 116.111 168.178 115.593 168.786 115.194L169.917 116.286C169.542 116.559 169.202 116.852 168.898 117.166C168.576 117.487 168.305 117.827 168.083 118.187C167.857 118.558 167.666 118.951 167.51 119.363C167.179 120.239 167.155 120.98 167.44 121.588C167.712 122.191 168.28 122.656 169.143 122.982L171.056 123.706L170.992 123.875C170.375 123.427 169.98 122.827 169.807 122.076C169.634 121.324 169.696 120.555 169.994 119.767C170.306 118.941 170.766 118.293 171.372 117.823C171.992 117.356 172.703 117.082 173.506 117C174.321 116.922 175.185 117.056 176.098 117.401C177.011 117.747 177.741 118.216 178.289 118.809C178.836 119.402 179.182 120.075 179.325 120.83C179.481 121.589 179.403 122.382 179.091 123.207C178.789 124.007 178.326 124.626 177.704 125.062C177.076 125.511 176.386 125.693 175.632 125.608L175.689 125.458L177.752 126.238L177.057 128.076L168.672 124.906C167.722 124.546 166.99 124.083 166.475 123.517C165.947 122.946 165.65 122.276 165.584 121.508C165.5 120.747 165.637 119.892 165.997 118.941ZM171.306 120.777C170.998 121.59 171.032 122.332 171.407 123.003C171.778 123.686 172.438 124.207 173.389 124.567C174.327 124.921 175.16 124.965 175.89 124.698C176.615 124.443 177.132 123.91 177.439 123.097C177.742 122.296 177.708 121.555 177.337 120.871C176.967 120.188 176.313 119.669 175.375 119.315C174.424 118.955 173.584 118.909 172.854 119.176C172.124 119.443 171.608 119.977 171.306 120.777Z" fill="black"/>
<path d="M159.896 136.639L167.865 142.318L166.725 143.918L164.814 142.557L164.93 142.393C165.46 143.033 165.734 143.696 165.753 144.383C165.765 145.081 165.53 145.825 165.049 146.615L164.698 147.177L163.212 146.291L163.824 145.225C164.263 144.47 164.424 143.772 164.307 143.131C164.189 142.489 163.799 141.931 163.135 141.458L158.709 138.304L159.896 136.639Z" fill="black"/>
<path d="M144.239 155.431C144.764 154.995 145.322 154.705 145.914 154.56C146.496 154.423 147.051 154.431 147.578 154.584C148.105 154.737 148.552 155.034 148.92 155.476C149.382 156.031 149.606 156.583 149.594 157.133C149.58 157.701 149.305 158.321 148.768 158.993C148.23 159.684 147.407 160.492 146.297 161.415L145.572 162.018L144.777 161.062L145.486 160.472C146.041 160.011 146.491 159.601 146.837 159.244C147.184 158.886 147.431 158.567 147.58 158.286C147.738 158.016 147.804 157.761 147.779 157.521C147.743 157.29 147.635 157.067 147.456 156.851C147.131 156.46 146.732 156.253 146.26 156.229C145.796 156.215 145.327 156.404 144.855 156.798C144.474 157.114 144.213 157.479 144.071 157.893C143.937 158.318 143.916 158.753 144.008 159.198C144.09 159.651 144.298 160.079 144.631 160.479L146.106 162.252C146.593 162.838 147.067 163.157 147.528 163.208C147.988 163.26 148.501 163.051 149.066 162.58C149.498 162.221 149.874 161.795 150.194 161.303C150.523 160.82 150.798 160.252 151.02 159.598L152.408 160.295C152.295 160.703 152.119 161.118 151.881 161.543C151.643 161.967 151.363 162.373 151.043 162.762C150.721 163.169 150.38 163.522 150.02 163.821C149.332 164.394 148.677 164.757 148.055 164.908C147.424 165.069 146.816 165.018 146.232 164.756C145.649 164.493 145.067 164.013 144.485 163.314L140.624 158.674L142.089 157.455L143.487 159.136L143.348 159.251C143.114 158.802 142.995 158.345 142.99 157.88C142.983 157.433 143.085 157.001 143.294 156.583C143.503 156.166 143.818 155.782 144.239 155.431Z" fill="black"/>
<path d="M132.513 165.828L136.649 174.697L134.868 175.528L133.987 173.637L134.187 173.544C134.232 174.054 134.187 174.525 134.049 174.958C133.912 175.391 133.686 175.776 133.372 176.115C133.051 176.471 132.654 176.759 132.182 176.979C131.443 177.324 130.761 177.428 130.137 177.291C129.512 177.155 128.946 176.762 128.437 176.114L128.692 175.996C128.772 176.77 128.622 177.474 128.239 178.11C127.863 178.757 127.305 179.253 126.566 179.598C125.887 179.914 125.268 180.041 124.707 179.978C124.152 179.927 123.642 179.686 123.175 179.254C122.714 178.835 122.297 178.225 121.924 177.426L119.373 171.955L121.209 171.099L123.717 176.479C124.068 177.23 124.458 177.719 124.888 177.946C125.307 178.179 125.813 178.157 126.406 177.88C126.843 177.677 127.176 177.396 127.407 177.037C127.638 176.679 127.752 176.257 127.747 175.773C127.736 175.306 127.606 174.806 127.357 174.273L125.044 169.311L126.879 168.455L129.388 173.835C129.738 174.586 130.122 175.078 130.541 175.311C130.959 175.543 131.465 175.521 132.059 175.244C132.507 175.035 132.847 174.752 133.078 174.393C133.297 174.04 133.398 173.624 133.381 173.145C133.37 172.679 133.24 172.179 132.991 171.645L130.678 166.684L132.513 165.828Z" fill="black"/>
</svg>
