<svg width="286" height="263" viewBox="0 0 286 263" fill="none" xmlns="http://www.w3.org/2000/svg">
<path d="M62.3179 193.263C61.657 193.591 61.0061 193.941 60.3313 194.236C59.975 194.4 59.5934 194.503 59.2031 194.539C57.8807 194.628 57.0374 193.503 57.5389 192.28C57.7925 191.73 58.1152 191.215 58.499 190.746C59.2278 189.781 59.9962 188.846 60.6784 187.761C60.4756 187.818 60.277 187.889 60.0842 187.974C59.4198 188.32 58.7649 188.684 58.1045 189.038C57.9477 189.124 57.7867 189.202 57.622 189.271C56.5642 189.706 55.6517 189.583 55.1638 188.943C54.6961 188.33 54.7913 187.52 55.4927 186.592C57.3531 184.132 59.7322 182.274 62.3778 180.73C62.9942 180.371 63.6039 180 64.2193 179.639C65.5297 178.87 66.5421 178.96 67.5676 180.082C69.5087 182.207 71.3988 184.378 73.3071 186.533C73.42 186.67 73.5244 186.815 73.6197 186.965C74.808 188.694 74.7851 189.743 73.4844 191.425C71.9825 193.336 70.2236 195.032 68.2576 196.463C66.9693 197.419 65.72 198.44 64.225 199.08C63.9394 199.225 63.6466 199.356 63.3479 199.472C62.5543 199.721 61.7866 199.708 61.1585 199.075C60.5583 198.469 60.5555 197.724 60.8034 196.982C61.0303 196.344 61.291 195.718 61.5842 195.107C61.8495 194.527 62.1507 193.962 62.4362 193.391C62.3967 193.348 62.3573 193.306 62.3179 193.263Z" fill="#333333"/>
<path d="M47.4185 173.496C46.9368 173.651 46.6099 173.776 46.273 173.86C45.4495 174.065 44.6932 173.929 44.1266 173.27C43.5833 172.637 43.5715 171.876 43.9045 171.158C44.2409 170.491 44.6157 169.844 45.0269 169.219C45.2467 168.861 45.5043 168.526 45.8822 167.983C45.2807 168.213 44.9045 168.395 44.5083 168.5C43.8236 168.683 43.1293 168.929 42.4339 168.95C41.0581 168.992 40.1257 167.886 40.436 166.553C40.6129 165.869 40.9346 165.23 41.3794 164.68C42.5677 163.177 44.234 162.3 45.9794 161.654C47.6801 161.025 49.4517 160.586 51.1986 160.085C52.1913 159.801 52.9402 160.202 53.4998 161.01C53.8034 161.449 54.0851 161.903 54.3758 162.351C54.7798 162.973 55.1648 163.551 55.9859 163.777C56.3022 163.871 56.5728 164.077 56.7469 164.356C56.921 164.636 56.9865 164.969 56.9312 165.294C56.8298 166.034 57.1881 166.511 57.5664 167.023C58.1554 167.819 58.845 168.537 59.1817 169.514C59.6467 170.862 59.5029 171.711 58.4542 172.696C57.9612 173.159 57.4623 173.645 56.887 173.987C54.7715 175.247 52.6239 176.453 50.4852 177.673C50.2988 177.779 50.1013 177.864 49.8964 177.928C48.9552 178.218 48.0562 178.214 47.309 177.466C46.6239 176.78 46.6172 175.938 46.8499 175.076C46.9786 174.599 47.1828 174.142 47.4185 173.496Z" fill="#333333"/>
<path d="M119.778 152.994C119.167 153.494 118.653 153.929 118.125 154.345C116.104 155.937 114.059 157.499 112.059 159.116C109.642 161.069 107.293 163.109 104.855 165.036C101.547 167.65 98.1808 170.19 94.8434 172.766C92.0159 174.949 89.0116 176.944 86.4083 179.367C81.1308 184.28 76.0721 189.427 70.9227 194.477C70.6692 194.726 70.412 194.971 70.0428 195.328C66.8509 190.79 63.7825 186.245 60.7687 181.499C71.7263 172.515 82.626 163.579 93.608 154.575C93.2607 153.959 92.9015 153.32 92.5107 152.626C92.2194 152.765 92.0287 152.837 91.8567 152.94C87.5625 155.511 83.2689 158.084 78.9758 160.657C78.332 161.042 77.6785 161.415 77.0075 161.75C73.5687 163.464 70.5802 165.885 67.3299 167.894C63.7722 170.094 60.2221 172.305 56.6673 174.509C56.5648 174.549 56.4586 174.579 56.3504 174.597L47.9 161.132C49.2838 160.264 50.6491 159.36 52.0585 158.532C55.1404 156.721 58.2485 154.955 61.3388 153.159C64.6762 151.219 68.0389 149.32 71.3302 147.304C76.1783 144.336 81.0109 141.339 85.7783 138.244C89.3718 135.91 92.8527 133.403 96.523 130.878C95.865 130.453 95.3584 130.077 94.8079 129.782C93.8029 129.245 92.7563 128.784 91.7568 128.237C90.9699 127.806 90.1713 127.732 89.2865 127.799C85.9634 128.051 82.7341 128.832 79.4749 129.455C73.3245 130.631 67.3346 132.409 61.4167 134.413C52.4538 137.447 43.2869 139.517 33.9214 140.78C29.5372 141.372 25.1956 142.308 20.7657 142.522C18.0577 142.653 15.3448 142.682 12.6338 142.731C12.0323 142.742 11.4291 142.647 10.7605 142.596C10.7363 142.282 10.6942 142.009 10.6976 141.737C10.7738 135.499 10.849 129.262 10.9233 123.024C10.9299 122.331 11.1111 121.841 11.6781 121.388C14.723 118.962 17.7013 116.45 20.7691 114.053C23.4435 111.963 26.1774 109.946 28.9356 107.968C34.4557 104.008 40.0605 100.173 45.9062 96.6992C50.58 93.9218 55.3603 91.3433 60.27 89.0145C71.1105 83.8729 82.2625 79.5536 93.9933 76.9501C103.942 74.7419 114.025 74.3767 124.13 75.5699C129.089 76.1556 133.8 77.7269 138.356 79.7444C142.167 81.4322 145.356 83.9652 148.183 86.976C149.644 88.5321 151.059 90.1314 152.472 91.7317C152.83 92.1381 153.196 92.3515 153.759 92.2967C157.829 91.9007 161.813 91.1342 165.589 89.5003C168.94 88.0508 172.141 86.3111 175.28 84.4516C175.864 84.1057 176.455 83.7671 177.069 83.4792C177.614 83.2234 177.782 82.8405 177.686 82.2755C177.62 81.8903 177.639 81.4886 177.552 81.1096C176.702 77.3787 175.461 73.7899 173.579 70.4473C172.676 68.8456 171.384 67.5535 170.028 66.3479C168.541 65.0249 166.981 63.7812 165.414 62.551C163.505 61.0522 161.327 60.1216 158.949 59.6126C154.203 58.5965 149.461 57.5607 144.724 56.5052C143.262 56.1796 141.805 55.815 140.376 55.3716C139.661 55.1522 138.992 54.8098 138.396 54.3599C137.052 53.3228 136.908 51.6073 138.007 50.2986C138.961 49.1634 140.255 48.5229 141.649 48.1597C142.782 47.8648 143.962 47.6037 145.122 47.5928C150.276 47.5445 155.375 46.8717 160.474 46.244C164.464 45.7526 168.384 45.9425 172.263 46.9495C174.473 47.523 176.697 48.0541 178.876 48.7257C181.367 49.5014 183.72 50.6621 185.849 52.1656C186.461 52.5936 187.108 52.9717 187.74 53.371C189.395 54.4164 191.038 55.4817 192.709 56.5008C194.958 57.8721 197.186 59.2863 199.506 60.5272C200.78 61.2082 202.199 61.6632 203.598 62.0568C205.811 62.678 208.159 62.6451 210.357 61.962C213.743 60.9515 217.147 59.9973 220.552 59.0536C224.182 58.0478 227.86 57.7864 231.58 58.4478C233.38 58.7457 235.11 59.3679 236.686 60.2843C237.776 60.9315 238.715 61.7522 239.337 62.86C240.284 64.5454 240.21 66.267 239.348 67.9793C238.646 69.3752 237.608 70.5056 236.449 71.5216C234.251 73.4484 231.731 74.8845 229.07 76.0415C223.969 78.2598 219.21 81.0946 214.536 84.0688C212.37 85.4472 210.388 87.1124 208.305 88.6233C204.975 91.0382 201.583 93.3486 197.912 95.2382C196.782 95.8198 195.77 96.6608 194.775 97.4702C189.814 101.507 184.912 105.611 180.453 110.213C177.089 113.685 173.946 117.325 171.564 121.562C171.408 121.882 171.23 122.192 171.031 122.489C170.309 123.443 170.494 124.316 170.983 125.348C174.217 132.176 177.132 139.147 178.892 146.513C181.664 158.116 181.054 169.554 176.655 180.752C172.099 192.35 165.607 202.704 156.993 211.749C152.83 216.121 148.655 220.475 144.13 224.477C140.525 227.631 136.727 230.559 132.759 233.243C132.553 233.384 132.338 233.514 132.135 233.66C130.09 235.128 130.856 234.932 128.457 234.313C124.207 233.216 119.975 232.054 115.737 230.916C115.329 230.806 114.927 230.674 114.48 230.54C114.554 230.12 114.6 229.772 114.678 229.431C115.291 226.753 115.907 224.075 116.526 221.398C118.395 213.259 120.346 205.138 122.112 196.978C124.503 185.906 125.359 174.564 124.657 163.271C124.581 162.026 124.496 160.783 124.4 159.54C124.285 158.07 123.774 156.774 122.682 155.743C121.753 154.866 120.827 153.987 119.778 152.994Z" fill="#FFDE73"/>
<path d="M212.062 75.2049C210.898 75.7168 209.518 76.3944 208.083 76.9252C207.314 77.2087 206.5 77.3485 205.681 77.3378C202.977 77.2837 201.427 74.7317 202.53 72.2582C202.965 71.2831 203.689 70.5307 204.522 69.9184C206.492 68.4714 208.634 67.3389 211.014 66.7224C211.564 66.5715 212.132 66.4964 212.702 66.4992C215.531 66.5638 217.133 69.4103 215.687 71.8433C215.293 72.5045 214.727 73.085 214.158 73.6148C213.586 74.1465 212.913 74.5686 212.062 75.2049Z" fill="#F9F7F8"/>
<path d="M147.41 133.823C147.087 133.285 146.989 132.64 147.138 132.029C147.287 131.417 147.671 130.888 148.207 130.555C148.718 130.251 149.326 130.152 149.906 130.279C150.486 130.406 150.995 130.749 151.329 131.239C152.001 132.268 151.664 133.752 150.605 134.438C149.496 135.156 148.074 134.882 147.41 133.823Z" fill="#F9F7F8"/>
<path d="M127.005 126.55C127.676 127.594 127.429 128.88 126.429 129.553C126.177 129.721 125.894 129.838 125.597 129.898C125.3 129.957 124.995 129.957 124.698 129.899C124.401 129.84 124.119 129.723 123.868 129.555C123.617 129.387 123.402 129.172 123.235 128.92C122.905 128.429 122.783 127.827 122.896 127.245C123.01 126.664 123.349 126.149 123.84 125.815C124.882 125.125 126.301 125.454 127.005 126.55Z" fill="#F9F7F8"/>
<path d="M157.606 106.503C157.454 106.263 157.352 105.994 157.304 105.714C157.256 105.433 157.264 105.146 157.328 104.868C157.392 104.59 157.51 104.328 157.676 104.095C157.842 103.863 158.052 103.665 158.294 103.514C158.791 103.22 159.382 103.132 159.941 103.268C160.501 103.403 160.984 103.752 161.289 104.239C161.905 105.24 161.582 106.644 160.597 107.247C159.605 107.856 158.241 107.516 157.606 106.503Z" fill="#F9F7F8"/>
<path d="M108.942 133.521C109.421 133.235 109.992 133.145 110.534 133.27C111.077 133.396 111.548 133.727 111.849 134.195C112.153 134.681 112.251 135.269 112.122 135.829C111.993 136.39 111.647 136.877 111.16 137.184C110.673 137.473 110.091 137.559 109.542 137.423C108.994 137.286 108.522 136.939 108.229 136.456C107.937 135.973 107.848 135.394 107.981 134.844C108.115 134.295 108.46 133.819 108.942 133.521Z" fill="#F9F7F8"/>
<path d="M143.473 123.813C144.054 124.686 143.747 125.797 142.741 126.469C141.737 127.139 140.42 126.937 139.803 126.02C139.222 125.156 139.507 123.887 140.412 123.305C141.391 122.674 142.88 122.922 143.473 123.813Z" fill="#F9F7F8"/>
<path d="M129.938 109.044C130.162 108.896 130.413 108.794 130.676 108.744C130.94 108.694 131.21 108.698 131.472 108.754C131.734 108.811 131.981 108.919 132.2 109.073C132.418 109.227 132.604 109.423 132.745 109.65C132.885 109.873 132.979 110.123 133.022 110.383C133.066 110.644 133.057 110.91 132.997 111.168C132.936 111.426 132.826 111.669 132.671 111.884C132.516 112.099 132.321 112.281 132.096 112.421C131.87 112.561 131.62 112.655 131.358 112.698C131.097 112.74 130.83 112.731 130.573 112.671C130.315 112.61 130.072 112.5 129.858 112.345C129.644 112.19 129.463 111.995 129.325 111.77C129.05 111.327 128.96 110.794 129.075 110.284C129.19 109.775 129.5 109.329 129.938 109.044Z" fill="#F9F7F8"/>
<path d="M110.748 152.034C111.301 152.905 111.028 154.227 110.179 154.784C109.381 155.308 108.191 155.033 107.645 154.197C107.368 153.758 107.274 153.227 107.383 152.719C107.492 152.21 107.795 151.763 108.229 151.473C108.431 151.344 108.657 151.256 108.894 151.214C109.131 151.172 109.373 151.177 109.607 151.229C109.841 151.281 110.063 151.379 110.259 151.517C110.454 151.655 110.621 151.831 110.748 152.034Z" fill="#F9F7F8"/>
<path d="M102.986 148.469C102.702 148.643 102.372 148.73 102.04 148.718C101.707 148.706 101.386 148.596 101.116 148.402C100.846 148.208 100.641 147.938 100.525 147.627C100.409 147.315 100.389 146.977 100.466 146.653C100.543 146.329 100.714 146.035 100.958 145.808C101.202 145.581 101.507 145.43 101.836 145.376C102.164 145.321 102.502 145.365 102.805 145.502C103.108 145.638 103.363 145.862 103.539 146.144C103.658 146.331 103.738 146.541 103.774 146.76C103.811 146.979 103.803 147.204 103.752 147.421C103.7 147.637 103.606 147.841 103.474 148.021C103.343 148.201 103.177 148.354 102.986 148.469Z" fill="#F9F7F8"/>
<path d="M126.987 141.746C127.212 142.111 127.29 142.548 127.204 142.969C127.117 143.389 126.874 143.762 126.524 144.011C126.253 144.193 125.935 144.289 125.609 144.29C125.284 144.29 124.966 144.194 124.696 144.014C124.426 143.833 124.216 143.577 124.093 143.276C123.97 142.976 123.939 142.646 124.004 142.327C124.069 142.009 124.227 141.717 124.459 141.488C124.69 141.258 124.985 141.103 125.304 141.041C125.624 140.978 125.954 141.012 126.254 141.138C126.554 141.263 126.809 141.475 126.987 141.746Z" fill="#F9F7F8"/>
<path d="M109.981 116.437C109.827 116.198 109.773 115.909 109.828 115.63C109.883 115.351 110.045 115.104 110.278 114.94C110.398 114.865 110.531 114.815 110.671 114.792C110.81 114.769 110.953 114.773 111.09 114.805C111.227 114.838 111.357 114.897 111.471 114.979C111.585 115.061 111.682 115.166 111.756 115.286C111.9 115.51 111.951 115.782 111.899 116.044C111.846 116.306 111.694 116.538 111.474 116.691C111.359 116.774 111.229 116.834 111.092 116.866C110.954 116.899 110.811 116.903 110.672 116.879C110.533 116.856 110.4 116.804 110.281 116.728C110.163 116.652 110.06 116.553 109.981 116.437Z" fill="#F9F7F8"/>
<path d="M122.437 100.482C122.635 100.361 122.871 100.319 123.098 100.366C123.325 100.414 123.524 100.546 123.656 100.736C123.726 100.833 123.776 100.943 123.802 101.06C123.828 101.177 123.829 101.298 123.807 101.416C123.784 101.534 123.738 101.646 123.671 101.746C123.604 101.845 123.517 101.93 123.416 101.995C123.314 102.06 123.201 102.104 123.083 102.124C122.964 102.144 122.843 102.14 122.726 102.111C122.61 102.083 122.5 102.031 122.404 101.959C122.309 101.887 122.229 101.796 122.17 101.692C122.046 101.496 122.004 101.259 122.055 101.033C122.105 100.806 122.242 100.608 122.437 100.482Z" fill="#F9F7F8"/>
<path d="M155.766 118.593C155.666 118.649 155.555 118.685 155.441 118.698C155.326 118.711 155.211 118.701 155.101 118.668C154.991 118.635 154.888 118.58 154.8 118.507C154.712 118.434 154.64 118.343 154.587 118.241C154.489 118.051 154.469 117.83 154.532 117.626C154.594 117.421 154.734 117.248 154.922 117.144C155.022 117.087 155.132 117.05 155.246 117.036C155.36 117.023 155.476 117.032 155.586 117.063C155.696 117.095 155.799 117.148 155.888 117.22C155.977 117.292 156.051 117.381 156.105 117.482C156.192 117.676 156.206 117.896 156.144 118.1C156.081 118.304 155.947 118.479 155.766 118.593Z" fill="#F9F7F8"/>
<path d="M177.558 141.834C177.686 142.259 177.786 142.59 177.886 142.923C160.23 151.353 142.62 159.761 124.866 168.238C124.831 167.621 124.804 167.137 124.769 166.506C142.241 158.105 159.837 149.881 177.558 141.834Z" fill="#333333"/>
<path d="M176.892 179.669C176.692 180.983 176.691 180.982 175.531 181.269C162.817 184.412 150.143 187.705 137.597 191.475C133.017 192.851 128.45 194.271 123.876 195.668C123.406 195.811 122.929 195.936 122.379 196.091C122.413 195.8 122.445 195.627 122.451 195.453C122.478 194.58 122.948 194.219 123.782 193.953C140.999 188.454 158.489 183.98 176.068 179.84C176.333 179.777 176.602 179.729 176.892 179.669Z" fill="#333333"/>
<path d="M43.283 139.351C42.6859 139.453 42.2071 139.534 41.6254 139.633C41.6526 139.34 41.6552 139.138 41.6917 138.942C44.4039 124.434 47.118 109.927 49.834 95.4207C50.0618 94.2044 50.0853 94.1848 51.4859 93.8584C48.6513 109.028 46.1453 124.209 43.283 139.351Z" fill="#333333"/>
<path d="M89.7483 78.2116C88.5935 80.7039 87.4835 83.0967 86.3762 85.4907C81.506 96.019 76.6994 106.58 71.3228 116.864C68.3315 122.586 65.067 128.167 61.9507 133.824C61.5854 134.488 61.0237 134.652 60.2149 134.798C60.4154 134.385 60.5586 134.049 60.737 133.731C62.906 129.874 65.1167 126.039 67.2457 122.159C72.0219 113.455 76.3489 104.526 80.6069 95.5629C83.2109 90.082 85.7959 84.5922 88.3619 79.0935C88.6254 78.5312 88.9058 78.0881 89.7483 78.2116Z" fill="#333333"/>
<path d="M124.469 182.151C124.257 181.336 124.561 180.946 125.25 180.593C133.742 176.233 142.486 172.437 151.302 168.794C160.277 165.085 169.23 161.322 178.194 157.585C178.881 157.298 179.578 157.035 180.276 156.759C180.537 157.669 180.549 157.699 179.805 158.006C178.255 158.644 176.68 159.224 175.134 159.872C169.998 162.024 164.867 164.187 159.74 166.361C154.448 168.606 149.146 170.826 143.883 173.135C139.666 174.985 135.492 176.934 131.315 178.875C129.308 179.809 127.34 180.828 125.352 181.801C125.074 181.937 124.776 182.031 124.469 182.151Z" fill="#333333"/>
<path d="M119.995 206.674C120.105 206.096 120.189 205.648 120.292 205.105C134.141 204.621 147.884 205.318 161.687 206.091C161.11 207.361 160.984 207.442 159.924 207.383C147.195 206.679 134.457 206.39 121.706 206.647C121.175 206.658 120.644 206.664 119.995 206.674Z" fill="#333333"/>
<path d="M65.1625 87.0815C64.972 87.6055 64.7984 87.9642 64.7104 88.3423C61.2417 103.253 57.779 118.165 54.3224 133.078C54.0727 134.155 53.8568 135.241 53.653 136.328C53.5522 136.866 53.3305 137.182 52.6375 137.044C52.7076 136.656 52.7637 136.277 52.8453 135.903C54.7779 127.049 56.6766 118.186 58.6599 109.343C60.2294 102.345 61.9112 95.371 63.519 88.3811C63.6933 87.6236 64.0361 87.1718 65.1625 87.0815Z" fill="#333333"/>
<path d="M22.6827 142.482C22.0886 142.523 21.6021 142.556 21.0411 142.595C21.0908 142.19 21.1167 141.88 21.168 141.574C22.8572 131.484 24.539 121.393 26.2132 111.301C26.399 110.161 26.8676 109.407 27.9976 108.869C26.2241 120.084 24.463 131.222 22.6827 142.482Z" fill="#333333"/>
<path d="M209.574 69.35C210.222 70.745 210.427 72.3742 209.725 74.0154C208.95 75.8304 206.965 76.2864 205.361 75.1483C203.725 73.9873 203.266 72.3333 203.319 70.4829C203.362 69.0094 204.419 67.848 205.829 67.5219C207.234 67.1972 208.679 67.8514 209.574 69.35Z" fill="#333333"/>
<path d="M34.9446 103.997C34.9355 104.447 34.9336 104.864 34.918 105.28C34.6402 112.696 33.7451 120.061 32.977 127.436C32.5339 131.692 32.1016 135.948 31.68 140.206C31.6514 140.488 31.6157 140.77 31.5728 141.145C31.2936 141.221 31.0041 141.299 30.6395 141.398C30.6365 141.097 30.6161 140.893 30.6352 140.692C31.1281 135.51 31.6478 130.331 32.1158 125.147C32.7087 118.579 33.2735 112.009 33.8102 105.436C33.8717 104.682 34.1365 104.241 34.9446 103.997Z" fill="#333333"/>
<path d="M184.175 51.1586C184.616 51.4342 185.033 51.6939 185.449 51.9537C185.016 52.6407 170.714 64.8279 169.339 65.6795C168.935 65.3589 168.501 65.0154 168.071 64.6745C168.599 63.905 178.986 55.1982 184.175 51.1586Z" fill="#333333"/>
<path d="M163.395 46.0691C164.078 46.067 164.669 46.0652 165.388 46.0628C163.451 50.7277 161.57 55.2561 159.648 59.8857C159.101 59.7121 158.633 59.5633 158.071 59.3851C159.819 55.0137 161.585 50.5959 163.395 46.0691Z" fill="#333333"/>
<path d="M145.562 56.5847C144.792 56.4942 144.198 56.4243 143.46 56.3374C145.216 53.9651 146.849 51.7585 148.482 49.5531C148.674 49.2951 148.874 49.0439 149.068 48.788C150.197 47.2989 150.196 47.2988 152.289 47.4167C149.997 50.54 147.748 53.6053 145.562 56.5847Z" fill="#333333"/>
<path d="M175.079 73.0579C174.535 72.6159 174.825 72.361 175.081 72.1123C175.978 71.2421 176.87 70.3664 177.779 69.5098C182.25 65.2993 186.725 61.0924 191.203 56.8891C191.43 56.6638 191.682 56.4638 191.952 56.2925C192.05 56.2342 192.245 56.3395 192.623 56.416C189.615 59.3635 186.66 62.0778 183.757 64.8449C180.873 67.5945 177.969 70.3244 175.079 73.0579Z" fill="#333333"/>
<path d="M226.728 73.823C225.698 74.4393 224.704 74.8013 223.596 74.7674C222.803 74.7536 222.043 74.4536 221.456 73.9231C221.164 73.6639 220.948 73.3715 221.212 73.0064C221.487 72.6265 221.826 72.739 222.13 73.0076C223.129 73.8907 224.227 73.7628 225.328 73.2654C226.794 72.603 227.868 71.5237 228.366 69.9888C228.556 69.4033 228.53 68.733 228.517 68.1033C228.509 67.7195 228.457 67.3346 228.896 67.236C229.403 67.1223 229.627 67.5395 229.649 67.9341C229.686 68.6008 229.72 69.2994 229.566 69.9399C229.156 71.6484 228.071 72.9043 226.728 73.823Z" fill="#333333"/>
<path d="M171.881 47.0748C169.389 52.0116 166.924 56.8947 164.4 61.8937C164.203 61.6715 164.039 61.5544 163.981 61.3978C163.944 61.2975 164.054 61.1335 164.117 61.0076C166.389 56.4518 168.662 51.8962 170.935 47.3409C171.135 46.9388 171.347 46.6599 171.881 47.0748Z" fill="#333333"/>
<path d="M155.691 47.018C155.577 47.2831 155.48 47.5425 155.358 47.7891C153.817 50.8866 152.272 53.9822 150.723 57.0759C150.549 57.4214 150.474 57.9876 149.785 57.6368C149.852 57.4061 149.932 57.1796 150.027 56.9586C151.577 53.8259 153.13 50.6946 154.686 47.5648C154.885 47.1626 155.08 46.8041 155.691 47.018Z" fill="#333333"/>
</svg>
