<svg width="1440" height="79" viewBox="0 0 1440 79" fill="none" xmlns="http://www.w3.org/2000/svg">
<path fill-rule="evenodd" clip-rule="evenodd" d="M1134 78.9033C1134 78.9033 1166.31 50.1546 1184.89 50.5316C1195.86 50.7543 1195.67 61.7333 1195.67 61.7333C1195.67 61.7333 1219.28 25.1851 1257.12 27.4667C1280.32 28.8654 1282.41 46.677 1282.41 46.677C1282.41 46.677 1290.86 28.5012 1307.84 28.111C1318.55 27.8644 1322.36 35.6742 1322.36 35.6742C1322.36 35.6742 1344.25 -2.34896 1384.12 0.114758C1421.34 2.41412 1417.09 32.3017 1417.09 32.3017C1417.09 32.3017 1430.7 23.4317 1441.81 24.15C1454.09 24.9444 1450.49 36.7425 1450.77 36.6255C1455.36 34.7145 1469.31 29.5376 1473.68 28.2141C1496.8 21.2013 1516.99 33.7773 1513.97 53.6943C1511.79 68.1199 1501.66 78.9033 1501.66 78.9033H1134Z" fill="#00113D"/>
<path fill-rule="evenodd" clip-rule="evenodd" d="M602.273 78.9033C602.273 78.9033 569.958 50.1546 551.384 50.5316C540.409 50.7543 540.606 61.7333 540.606 61.7333C540.606 61.7333 516.993 25.1851 479.149 27.4667C455.953 28.8654 453.858 46.677 453.858 46.677C453.858 46.677 445.41 28.5012 428.436 28.111C417.721 27.8644 413.912 35.6742 413.912 35.6742C413.912 35.6742 392.027 -2.34896 352.15 0.114758C314.932 2.41412 319.188 32.3017 319.188 32.3017C319.188 32.3017 305.576 23.4317 294.465 24.15C282.179 24.9444 285.786 36.7425 285.507 36.6255C280.915 34.7145 266.959 29.5376 262.597 28.2141C239.471 21.2013 219.285 33.7773 222.299 53.6943C224.482 68.1199 234.615 78.9033 234.615 78.9033H602.273Z" fill="#00113D"/>
<path fill-rule="evenodd" clip-rule="evenodd" d="M520 78.9033C520 78.9033 552.315 50.1546 570.889 50.5316C581.864 50.7543 581.667 61.7333 581.667 61.7333C581.667 61.7333 605.28 25.1851 643.124 27.4667C666.32 28.8654 668.415 46.677 668.415 46.677C668.415 46.677 676.863 28.5012 693.837 28.111C704.552 27.8644 708.361 35.6742 708.361 35.6742C708.361 35.6742 730.246 -2.34896 770.122 0.114758C807.341 2.41412 803.085 32.3017 803.085 32.3017C803.085 32.3017 816.697 23.4317 827.808 24.15C840.094 24.9444 836.487 36.7425 836.766 36.6255C841.358 34.7145 855.314 29.5376 859.676 28.2141C882.802 21.2013 902.988 33.7773 899.974 53.6943C897.791 68.1199 887.658 78.9033 887.658 78.9033H520Z" fill="#00113D"/>
<path fill-rule="evenodd" clip-rule="evenodd" d="M1198.27 78.9033C1198.27 78.9033 1165.96 50.1546 1147.38 50.5316C1136.41 50.7543 1136.61 61.7333 1136.61 61.7333C1136.61 61.7333 1112.99 25.1851 1075.15 27.4667C1051.95 28.8654 1049.86 46.677 1049.86 46.677C1049.86 46.677 1041.41 28.5012 1024.44 28.111C1013.72 27.8644 1009.91 35.6742 1009.91 35.6742C1009.91 35.6742 988.027 -2.34896 948.15 0.114758C910.932 2.41412 915.188 32.3017 915.188 32.3017C915.188 32.3017 901.576 23.4317 890.465 24.15C878.179 24.9444 881.786 36.7425 881.507 36.6255C876.915 34.7145 862.959 29.5376 858.597 28.2141C835.471 21.2013 815.285 33.7773 818.299 53.6943C820.482 68.1199 830.615 78.9033 830.615 78.9033H1198.27Z" fill="#00113D"/>
<path fill-rule="evenodd" clip-rule="evenodd" d="M-76 78.9033C-76 78.9033 -43.6852 50.1546 -25.111 50.5316C-14.1356 50.7543 -14.3333 61.7333 -14.3333 61.7333C-14.3333 61.7333 9.27992 25.1851 47.1242 27.4667C70.32 28.8654 72.4147 46.677 72.4147 46.677C72.4147 46.677 80.8632 28.5012 97.8371 28.111C108.552 27.8644 112.361 35.6742 112.361 35.6742C112.361 35.6742 134.246 -2.34896 174.122 0.114758C211.341 2.41412 207.085 32.3017 207.085 32.3017C207.085 32.3017 220.697 23.4317 231.808 24.15C244.094 24.9444 240.487 36.7425 240.766 36.6255C245.358 34.7145 259.314 29.5376 263.676 28.2141C286.802 21.2013 306.988 33.7773 303.974 53.6943C301.791 68.1199 291.658 78.9033 291.658 78.9033H-76Z" fill="#00113D"/>
</svg>
