<svg width="43" height="52" viewBox="0 0 43 52" fill="none" xmlns="http://www.w3.org/2000/svg">
<path d="M40.3654 20.6036C39.2579 22.2825 37.9095 23.8045 36.6303 25.3646C35.2338 27.0681 33.7646 28.7117 32.3711 30.4178C27.2059 36.7429 22.0691 43.0912 16.8993 49.4125C15.4206 51.2203 13.5811 52.2793 11.1507 51.9266C10.6991 51.877 10.244 51.8671 9.7903 51.897C6.06204 52.0186 4.39125 50.7486 3.82186 47.0169C2.76953 40.1229 1.58946 33.2352 0.923419 26.2975C0.378867 20.2654 0.152911 14.2067 0.246488 8.1469C0.306926 2.07872 4.17713 -0.681466 10.0008 0.892677C13.0776 1.72418 16.0839 2.82156 19.1076 3.84164C22.8289 5.09707 26.5848 6.16206 30.5158 6.57201C32.3216 6.76038 34.1019 7.18408 35.115 7.36322C42.1805 9.66995 44.0591 15.0038 40.3654 20.6036ZM30.3564 16.9458C23.2441 16.267 17.0357 14.2811 10.9272 11.9371C9.8838 15.5634 11.291 32.4127 13.0134 37.362C19.5847 31.4121 24.0346 23.7616 30.3564 16.9458Z" fill="#FFDE73"/>
</svg>
