<svg width="562" height="80" viewBox="0 0 562 80" fill="none" xmlns="http://www.w3.org/2000/svg">
<g clip-path="url(#clip0_4057_3609)">
<path fill-rule="evenodd" clip-rule="evenodd" d="M62.2729 79.7003C62.2729 79.7003 29.9581 50.6612 11.3839 51.042C0.40856 51.267 0.606294 62.3568 0.606294 62.3568C0.606294 62.3568 -23.007 25.4395 -60.8512 27.7442C-84.047 29.1569 -86.1417 47.1485 -86.1417 47.1485C-86.1417 47.1485 -94.5902 28.7891 -111.564 28.3949C-122.279 28.1459 -126.088 36.0346 -126.088 36.0346C-126.088 36.0346 -147.973 -2.37269 -187.85 0.115917C-225.068 2.43851 -220.812 32.628 -220.812 32.628C-220.812 32.628 -234.424 23.6683 -245.535 24.3939C-257.821 25.1963 -254.214 37.1137 -254.493 36.9955C-259.085 35.0651 -273.041 29.836 -277.403 28.4991C-300.529 21.4154 -320.715 34.1185 -317.701 54.2367C-315.518 68.808 -305.385 79.7003 -305.385 79.7003H62.2729Z" fill="#1FCAA8"/>
<path fill-rule="evenodd" clip-rule="evenodd" d="M-20 79.7003C-20 79.7003 12.3148 50.6612 30.889 51.042C41.8644 51.267 41.6667 62.3568 41.6667 62.3568C41.6667 62.3568 65.2799 25.4395 103.124 27.7442C126.32 29.1569 128.415 47.1485 128.415 47.1485C128.415 47.1485 136.863 28.7891 153.837 28.3949C164.552 28.1459 168.361 36.0346 168.361 36.0346C168.361 36.0346 190.246 -2.37269 230.122 0.115917C267.341 2.43851 263.085 32.628 263.085 32.628C263.085 32.628 276.697 23.6683 287.808 24.3939C300.094 25.1963 296.487 37.1137 296.766 36.9955C301.358 35.0651 315.314 29.836 319.676 28.4991C342.802 21.4154 362.988 34.1185 359.974 54.2367C357.791 68.808 347.658 79.7003 347.658 79.7003H-20Z" fill="#1FCAA8"/>
<path fill-rule="evenodd" clip-rule="evenodd" d="M658.273 79.7003C658.273 79.7003 625.958 50.6612 607.384 51.042C596.409 51.267 596.606 62.3568 596.606 62.3568C596.606 62.3568 572.993 25.4395 535.149 27.7442C511.953 29.1569 509.858 47.1485 509.858 47.1485C509.858 47.1485 501.41 28.7891 484.436 28.3949C473.721 28.1459 469.912 36.0346 469.912 36.0346C469.912 36.0346 448.027 -2.37269 408.15 0.115917C370.932 2.43851 375.188 32.628 375.188 32.628C375.188 32.628 361.576 23.6683 350.465 24.3939C338.179 25.1963 341.786 37.1137 341.507 36.9955C336.915 35.0651 322.959 29.836 318.597 28.4991C295.471 21.4154 275.285 34.1185 278.299 54.2367C280.482 68.808 290.615 79.7003 290.615 79.7003H658.273Z" fill="#1FCAA8"/>
</g>
<defs>
<clipPath id="clip0_4057_3609">
<rect width="562" height="80" fill="white"/>
</clipPath>
</defs>
</svg>
