<svg width="1440" height="79" viewBox="0 0 1440 79" fill="none" xmlns="http://www.w3.org/2000/svg">
<g clip-path="url(#clip0_4216_15818)">
<path fill-rule="evenodd" clip-rule="evenodd" d="M1140 78.9033C1140 78.9033 1172.31 50.1546 1190.89 50.5316C1201.86 50.7543 1201.67 61.7333 1201.67 61.7333C1201.67 61.7333 1225.28 25.1851 1263.12 27.4667C1286.32 28.8654 1288.41 46.677 1288.41 46.677C1288.41 46.677 1296.86 28.5012 1313.84 28.111C1324.55 27.8644 1328.36 35.6742 1328.36 35.6742C1328.36 35.6742 1350.25 -2.34896 1390.12 0.114758C1427.34 2.41412 1423.09 32.3017 1423.09 32.3017C1423.09 32.3017 1436.7 23.4317 1447.81 24.15C1460.09 24.9444 1456.49 36.7425 1456.77 36.6255C1461.36 34.7145 1475.31 29.5376 1479.68 28.2141C1502.8 21.2013 1522.99 33.7773 1519.97 53.6943C1517.79 68.1199 1507.66 78.9033 1507.66 78.9033H1140Z" fill="#E9FAF6"/>
<path fill-rule="evenodd" clip-rule="evenodd" d="M608.273 78.9033C608.273 78.9033 575.958 50.1546 557.384 50.5316C546.409 50.7543 546.606 61.7333 546.606 61.7333C546.606 61.7333 522.993 25.1851 485.149 27.4667C461.953 28.8654 459.858 46.677 459.858 46.677C459.858 46.677 451.41 28.5012 434.436 28.111C423.721 27.8644 419.912 35.6742 419.912 35.6742C419.912 35.6742 398.027 -2.34896 358.15 0.114758C320.932 2.41412 325.188 32.3017 325.188 32.3017C325.188 32.3017 311.576 23.4317 300.465 24.15C288.179 24.9444 291.786 36.7425 291.507 36.6255C286.915 34.7145 272.959 29.5376 268.597 28.2141C245.471 21.2013 225.285 33.7773 228.299 53.6943C230.482 68.1199 240.615 78.9033 240.615 78.9033H608.273Z" fill="#E9FAF6"/>
<path fill-rule="evenodd" clip-rule="evenodd" d="M526 78.9033C526 78.9033 558.315 50.1546 576.889 50.5316C587.864 50.7543 587.667 61.7333 587.667 61.7333C587.667 61.7333 611.28 25.1851 649.124 27.4667C672.32 28.8654 674.415 46.677 674.415 46.677C674.415 46.677 682.863 28.5012 699.837 28.111C710.552 27.8644 714.361 35.6742 714.361 35.6742C714.361 35.6742 736.246 -2.34896 776.122 0.114758C813.341 2.41412 809.085 32.3017 809.085 32.3017C809.085 32.3017 822.697 23.4317 833.808 24.15C846.094 24.9444 842.487 36.7425 842.766 36.6255C847.358 34.7145 861.314 29.5376 865.676 28.2141C888.802 21.2013 908.988 33.7773 905.974 53.6943C903.791 68.1199 893.658 78.9033 893.658 78.9033H526Z" fill="#E9FAF6"/>
<path fill-rule="evenodd" clip-rule="evenodd" d="M1204.27 78.9033C1204.27 78.9033 1171.96 50.1546 1153.38 50.5316C1142.41 50.7543 1142.61 61.7333 1142.61 61.7333C1142.61 61.7333 1118.99 25.1851 1081.15 27.4667C1057.95 28.8654 1055.86 46.677 1055.86 46.677C1055.86 46.677 1047.41 28.5012 1030.44 28.111C1019.72 27.8644 1015.91 35.6742 1015.91 35.6742C1015.91 35.6742 994.027 -2.34896 954.15 0.114758C916.932 2.41412 921.188 32.3017 921.188 32.3017C921.188 32.3017 907.576 23.4317 896.465 24.15C884.179 24.9444 887.786 36.7425 887.507 36.6255C882.915 34.7145 868.959 29.5376 864.597 28.2141C841.471 21.2013 821.285 33.7773 824.299 53.6943C826.482 68.1199 836.615 78.9033 836.615 78.9033H1204.27Z" fill="#E9FAF6"/>
<path fill-rule="evenodd" clip-rule="evenodd" d="M-70 78.9033C-70 78.9033 -37.6852 50.1546 -19.111 50.5316C-8.13561 50.7543 -8.33334 61.7333 -8.33334 61.7333C-8.33334 61.7333 15.2799 25.1851 53.1242 27.4667C76.32 28.8654 78.4147 46.677 78.4147 46.677C78.4147 46.677 86.8632 28.5012 103.837 28.111C114.552 27.8644 118.361 35.6742 118.361 35.6742C118.361 35.6742 140.246 -2.34896 180.122 0.114758C217.341 2.41412 213.085 32.3017 213.085 32.3017C213.085 32.3017 226.697 23.4317 237.808 24.15C250.094 24.9444 246.487 36.7425 246.766 36.6255C251.358 34.7145 265.314 29.5376 269.676 28.2141C292.802 21.2013 312.988 33.7773 309.974 53.6943C307.791 68.1199 297.658 78.9033 297.658 78.9033H-70Z" fill="#E9FAF6"/>
</g>
<defs>
<clipPath id="clip0_4216_15818">
<rect width="1440" height="79" fill="white"/>
</clipPath>
</defs>
</svg>
