<svg width="767" height="79" viewBox="0 0 767 79" fill="none" xmlns="http://www.w3.org/2000/svg">
<g clip-path="url(#clip0_4212_15800)">
<path fill-rule="evenodd" clip-rule="evenodd" d="M675 0.0967343C675 0.0967343 707.315 28.8454 725.889 28.4684C736.864 28.2457 736.667 17.2667 736.667 17.2667C736.667 17.2667 760.28 53.8149 798.124 51.5333C821.32 50.1346 823.415 32.323 823.415 32.323C823.415 32.323 831.863 50.4988 848.837 50.889C859.552 51.1356 863.361 43.3258 863.361 43.3258C863.361 43.3258 885.246 81.349 925.122 78.8852C962.341 76.5859 958.085 46.6983 958.085 46.6983C958.085 46.6983 971.697 55.5683 982.808 54.85C995.094 54.0556 991.487 42.2575 991.766 42.3745C996.358 44.2855 1010.31 49.4624 1014.68 50.7859C1037.8 57.7987 1057.99 45.2227 1054.97 25.3057C1052.79 10.8801 1042.66 0.0967343 1042.66 0.0967343H675Z" fill="#1FCAA8"/>
<path fill-rule="evenodd" clip-rule="evenodd" d="M143.273 0.0967343C143.273 0.0967343 110.958 28.8454 92.3839 28.4684C81.4086 28.2457 81.6063 17.2667 81.6063 17.2667C81.6063 17.2667 57.993 53.8149 20.1488 51.5333C-3.04702 50.1346 -5.14172 32.323 -5.14172 32.323C-5.14172 32.323 -13.5902 50.4988 -30.5641 50.889C-41.2794 51.1356 -45.088 43.3258 -45.088 43.3258C-45.088 43.3258 -66.9728 81.349 -106.85 78.8852C-144.068 76.5859 -139.812 46.6983 -139.812 46.6983C-139.812 46.6983 -153.424 55.5683 -164.535 54.85C-176.821 54.0556 -173.214 42.2575 -173.493 42.3745C-178.085 44.2855 -192.041 49.4624 -196.403 50.7859C-219.529 57.7987 -239.715 45.2227 -236.701 25.3057C-234.518 10.8801 -224.385 0.0967343 -224.385 0.0967343H143.273Z" fill="#1FCAA8"/>
<path fill-rule="evenodd" clip-rule="evenodd" d="M61 0.0967343C61 0.0967343 93.3148 28.8454 111.889 28.4684C122.864 28.2457 122.667 17.2667 122.667 17.2667C122.667 17.2667 146.28 53.8149 184.124 51.5333C207.32 50.1346 209.415 32.323 209.415 32.323C209.415 32.323 217.863 50.4988 234.837 50.889C245.552 51.1356 249.361 43.3258 249.361 43.3258C249.361 43.3258 271.246 81.349 311.122 78.8852C348.341 76.5859 344.085 46.6983 344.085 46.6983C344.085 46.6983 357.697 55.5683 368.808 54.85C381.094 54.0556 377.487 42.2575 377.766 42.3745C382.358 44.2855 396.314 49.4624 400.676 50.7859C423.802 57.7987 443.988 45.2227 440.974 25.3057C438.791 10.8801 428.658 0.0967343 428.658 0.0967343H61Z" fill="#1FCAA8"/>
<path fill-rule="evenodd" clip-rule="evenodd" d="M739.273 0.0967343C739.273 0.0967343 706.958 28.8454 688.384 28.4684C677.409 28.2457 677.606 17.2667 677.606 17.2667C677.606 17.2667 653.993 53.8149 616.149 51.5333C592.953 50.1346 590.858 32.323 590.858 32.323C590.858 32.323 582.41 50.4988 565.436 50.889C554.721 51.1356 550.912 43.3258 550.912 43.3258C550.912 43.3258 529.027 81.349 489.15 78.8852C451.932 76.5859 456.188 46.6983 456.188 46.6983C456.188 46.6983 442.576 55.5683 431.465 54.85C419.179 54.0556 422.786 42.2575 422.507 42.3745C417.915 44.2855 403.959 49.4624 399.597 50.7859C376.471 57.7987 356.285 45.2227 359.299 25.3057C361.482 10.8801 371.615 0.0967343 371.615 0.0967343H739.273Z" fill="#1FCAA8"/>
</g>
<defs>
<clipPath id="clip0_4212_15800">
<rect width="767" height="79" fill="white" transform="matrix(1 0 0 -1 0 79)"/>
</clipPath>
</defs>
</svg>
