<svg width="1440" height="80" viewBox="0 0 1440 80" fill="none" xmlns="http://www.w3.org/2000/svg">
<g clip-path="url(#clip0_4212_15806)">
<path fill-rule="evenodd" clip-rule="evenodd" d="M1134.5 79.7003C1134.5 79.7003 1166.81 50.6612 1185.39 51.042C1196.36 51.267 1196.17 62.3568 1196.17 62.3568C1196.17 62.3568 1219.78 25.4395 1257.62 27.7442C1280.82 29.1569 1282.91 47.1485 1282.91 47.1485C1282.91 47.1485 1291.36 28.7891 1308.34 28.3949C1319.05 28.1459 1322.86 36.0346 1322.86 36.0346C1322.86 36.0346 1344.75 -2.37269 1384.62 0.115917C1421.84 2.43851 1417.59 32.628 1417.59 32.628C1417.59 32.628 1431.2 23.6683 1442.31 24.3939C1454.59 25.1963 1450.99 37.1137 1451.27 36.9955C1455.86 35.0651 1469.81 29.836 1474.18 28.4991C1497.3 21.4154 1517.49 34.1185 1514.47 54.2367C1512.29 68.808 1502.16 79.7003 1502.16 79.7003H1134.5Z" fill="#1FCAA8"/>
<path fill-rule="evenodd" clip-rule="evenodd" d="M602.773 79.7003C602.773 79.7003 570.458 50.6612 551.884 51.042C540.909 51.267 541.106 62.3568 541.106 62.3568C541.106 62.3568 517.493 25.4395 479.649 27.7442C456.453 29.1569 454.358 47.1485 454.358 47.1485C454.358 47.1485 445.91 28.7891 428.936 28.3949C418.221 28.1459 414.412 36.0346 414.412 36.0346C414.412 36.0346 392.527 -2.37269 352.65 0.115917C315.432 2.43851 319.688 32.628 319.688 32.628C319.688 32.628 306.076 23.6683 294.965 24.3939C282.679 25.1963 286.286 37.1137 286.007 36.9955C281.415 35.0651 267.459 29.836 263.097 28.4991C239.971 21.4154 219.785 34.1185 222.799 54.2367C224.982 68.808 235.115 79.7003 235.115 79.7003H602.773Z" fill="#1FCAA8"/>
<path fill-rule="evenodd" clip-rule="evenodd" d="M520.5 79.7003C520.5 79.7003 552.815 50.6612 571.389 51.042C582.364 51.267 582.167 62.3568 582.167 62.3568C582.167 62.3568 605.78 25.4395 643.624 27.7442C666.82 29.1569 668.915 47.1485 668.915 47.1485C668.915 47.1485 677.363 28.7891 694.337 28.3949C705.052 28.1459 708.861 36.0346 708.861 36.0346C708.861 36.0346 730.746 -2.37269 770.622 0.115917C807.841 2.43851 803.585 32.628 803.585 32.628C803.585 32.628 817.197 23.6683 828.308 24.3939C840.594 25.1963 836.987 37.1137 837.266 36.9955C841.858 35.0651 855.814 29.836 860.176 28.4991C883.302 21.4154 903.488 34.1185 900.474 54.2367C898.291 68.808 888.158 79.7003 888.158 79.7003H520.5Z" fill="#1FCAA8"/>
<path fill-rule="evenodd" clip-rule="evenodd" d="M1198.77 79.7003C1198.77 79.7003 1166.46 50.6612 1147.88 51.042C1136.91 51.267 1137.11 62.3568 1137.11 62.3568C1137.11 62.3568 1113.49 25.4395 1075.65 27.7442C1052.45 29.1569 1050.36 47.1485 1050.36 47.1485C1050.36 47.1485 1041.91 28.7891 1024.94 28.3949C1014.22 28.1459 1010.41 36.0346 1010.41 36.0346C1010.41 36.0346 988.527 -2.37269 948.65 0.115917C911.432 2.43851 915.688 32.628 915.688 32.628C915.688 32.628 902.076 23.6683 890.965 24.3939C878.679 25.1963 882.286 37.1137 882.007 36.9955C877.415 35.0651 863.459 29.836 859.097 28.4991C835.971 21.4154 815.785 34.1185 818.799 54.2367C820.982 68.808 831.115 79.7003 831.115 79.7003H1198.77Z" fill="#1FCAA8"/>
<path fill-rule="evenodd" clip-rule="evenodd" d="M-75.5 79.7003C-75.5 79.7003 -43.1852 50.6612 -24.611 51.042C-13.6356 51.267 -13.8333 62.3568 -13.8333 62.3568C-13.8333 62.3568 9.77992 25.4395 47.6242 27.7442C70.82 29.1569 72.9147 47.1485 72.9147 47.1485C72.9147 47.1485 81.3632 28.7891 98.3371 28.3949C109.052 28.1459 112.861 36.0346 112.861 36.0346C112.861 36.0346 134.746 -2.37269 174.622 0.115917C211.841 2.43851 207.585 32.628 207.585 32.628C207.585 32.628 221.197 23.6683 232.308 24.3939C244.594 25.1963 240.987 37.1137 241.266 36.9955C245.858 35.0651 259.814 29.836 264.176 28.4991C287.302 21.4154 307.488 34.1185 304.474 54.2367C302.291 68.808 292.158 79.7003 292.158 79.7003H-75.5Z" fill="#1FCAA8"/>
</g>
<defs>
<clipPath id="clip0_4212_15806">
<rect width="1440" height="80" fill="white"/>
</clipPath>
</defs>
</svg>
