<svg width="767" height="79" viewBox="0 0 767 79" fill="none" xmlns="http://www.w3.org/2000/svg">
<g clip-path="url(#clip0_4216_15818)">
<path fill-rule="evenodd" clip-rule="evenodd" d="M636 78.9033C636 78.9033 668.315 50.1546 686.889 50.5316C697.864 50.7543 697.667 61.7333 697.667 61.7333C697.667 61.7333 721.28 25.1851 759.124 27.4667C782.32 28.8654 784.415 46.677 784.415 46.677C784.415 46.677 792.863 28.5012 809.837 28.111C820.552 27.8644 824.361 35.6742 824.361 35.6742C824.361 35.6742 846.246 -2.34896 886.122 0.114758C923.341 2.41412 919.085 32.3017 919.085 32.3017C919.085 32.3017 932.697 23.4317 943.808 24.15C956.094 24.9444 952.487 36.7425 952.766 36.6255C957.358 34.7145 971.314 29.5376 975.676 28.2141C998.802 21.2013 1018.99 33.7773 1015.97 53.6943C1013.79 68.1199 1003.66 78.9033 1003.66 78.9033H636Z" fill="#E9FAF6"/>
<path fill-rule="evenodd" clip-rule="evenodd" d="M104.273 78.9033C104.273 78.9033 71.9581 50.1546 53.3839 50.5316C42.4086 50.7543 42.6063 61.7333 42.6063 61.7333C42.6063 61.7333 18.993 25.1851 -18.8512 27.4667C-42.047 28.8654 -44.1417 46.677 -44.1417 46.677C-44.1417 46.677 -52.5902 28.5012 -69.5641 28.111C-80.2794 27.8644 -84.088 35.6742 -84.088 35.6742C-84.088 35.6742 -105.973 -2.34896 -145.85 0.114758C-183.068 2.41412 -178.812 32.3017 -178.812 32.3017C-178.812 32.3017 -192.424 23.4317 -203.535 24.15C-215.821 24.9444 -212.214 36.7425 -212.493 36.6255C-217.085 34.7145 -231.041 29.5376 -235.403 28.2141C-258.529 21.2013 -278.715 33.7773 -275.701 53.6943C-273.518 68.1199 -263.385 78.9033 -263.385 78.9033H104.273Z" fill="#E9FAF6"/>
<path fill-rule="evenodd" clip-rule="evenodd" d="M22 78.9033C22 78.9033 54.3148 50.1546 72.889 50.5316C83.8644 50.7543 83.6667 61.7333 83.6667 61.7333C83.6667 61.7333 107.28 25.1851 145.124 27.4667C168.32 28.8654 170.415 46.677 170.415 46.677C170.415 46.677 178.863 28.5012 195.837 28.111C206.552 27.8644 210.361 35.6742 210.361 35.6742C210.361 35.6742 232.246 -2.34896 272.122 0.114758C309.341 2.41412 305.085 32.3017 305.085 32.3017C305.085 32.3017 318.697 23.4317 329.808 24.15C342.094 24.9444 338.487 36.7425 338.766 36.6255C343.358 34.7145 357.314 29.5376 361.676 28.2141C384.802 21.2013 404.988 33.7773 401.974 53.6943C399.791 68.1199 389.658 78.9033 389.658 78.9033H22Z" fill="#E9FAF6"/>
<path fill-rule="evenodd" clip-rule="evenodd" d="M700.273 78.9033C700.273 78.9033 667.958 50.1546 649.384 50.5316C638.409 50.7543 638.606 61.7333 638.606 61.7333C638.606 61.7333 614.993 25.1851 577.149 27.4667C553.953 28.8654 551.858 46.677 551.858 46.677C551.858 46.677 543.41 28.5012 526.436 28.111C515.721 27.8644 511.912 35.6742 511.912 35.6742C511.912 35.6742 490.027 -2.34896 450.15 0.114758C412.932 2.41412 417.188 32.3017 417.188 32.3017C417.188 32.3017 403.576 23.4317 392.465 24.15C380.179 24.9444 383.786 36.7425 383.507 36.6255C378.915 34.7145 364.959 29.5376 360.597 28.2141C337.471 21.2013 317.285 33.7773 320.299 53.6943C322.482 68.1199 332.615 78.9033 332.615 78.9033H700.273Z" fill="#E9FAF6"/>
</g>
<defs>
<clipPath id="clip0_4216_15818">
<rect width="767" height="79" fill="white"/>
</clipPath>
</defs>
</svg>
